<?xml version="1.0" encoding="UTF-8"?>
<svg xmlns="http://www.w3.org/2000/svg" xmlns:xlink="http://www.w3.org/1999/xlink" width="24px" height="24px" viewBox="0 0 24 24" version="1.1">
<g id="surface1">
<path style=" stroke:none;fill-rule:nonzero;fill:rgb(100%,100%,100%);fill-opacity:1;" d="M 0.0585938 8.96875 C 0.0585938 5.980469 0.0585938 3.023438 0.0585938 0.0625 C 8.054688 0.0625 16.050781 0.0625 24.054688 0.0625 C 24.054688 8.054688 24.054688 16.046875 24.054688 24.050781 C 16.058594 24.050781 8.058594 24.050781 0.0585938 24.050781 C 0.0585938 19.035156 0.0585938 14.019531 0.0585938 8.96875 M 11.195312 1.605469 C 11.195312 1.605469 11.167969 1.613281 11.117188 1.605469 C 10.742188 1.652344 10.355469 1.65625 9.996094 1.753906 C 9.242188 1.957031 8.476562 2.140625 7.773438 2.460938 C 7.023438 2.800781 6.300781 3.238281 5.644531 3.738281 C 5.011719 4.222656 4.449219 4.808594 3.914062 5.402344 C 3.566406 5.789062 3.320312 6.273438 3.03125 6.710938 C 3.03125 6.710938 3.027344 6.710938 2.992188 6.722656 C 2.988281 6.757812 2.980469 6.792969 2.953125 6.859375 C 2.765625 7.058594 2.5625 7.246094 2.386719 7.449219 C 2.054688 7.828125 1.726562 8.203125 1.421875 8.597656 C 1.1875 8.894531 1.171875 9.230469 1.367188 9.5625 C 1.484375 9.765625 1.609375 9.960938 1.722656 10.214844 C 1.683594 10.707031 1.632812 11.203125 1.605469 11.699219 C 1.589844 12.054688 1.585938 12.414062 1.609375 12.769531 C 1.632812 13.175781 1.667969 13.585938 1.738281 13.984375 C 1.949219 15.183594 2.382812 16.308594 2.976562 17.363281 C 3.40625 18.128906 3.917969 18.835938 4.574219 19.484375 C 4.554688 19.65625 4.535156 19.832031 4.523438 19.960938 C 4.863281 20.027344 5.164062 20.085938 5.464844 20.191406 C 5.523438 20.398438 5.617188 20.601562 5.636719 20.8125 C 5.675781 21.238281 5.675781 21.667969 5.695312 22.121094 C 6.070312 22.035156 6.394531 21.941406 6.722656 21.890625 C 7.152344 21.824219 7.566406 21.585938 8.019531 21.742188 C 8.019531 21.742188 8.015625 21.742188 8.03125 21.777344 C 8.066406 21.78125 8.097656 21.789062 8.15625 21.832031 C 8.375 22.023438 8.628906 22.113281 8.953125 22.105469 C 8.996094 22.121094 9.039062 22.136719 9.125 22.15625 C 9.15625 22.160156 9.183594 22.160156 9.230469 22.203125 C 9.910156 22.308594 10.589844 22.402344 11.269531 22.519531 C 12.132812 22.667969 12.996094 22.566406 13.84375 22.4375 C 15.121094 22.246094 16.316406 21.785156 17.445312 21.140625 C 18.574219 20.496094 19.53125 19.652344 20.335938 18.648438 C 21.25 17.503906 21.875 16.203125 22.257812 14.78125 C 22.5 13.882812 22.574219 12.960938 22.621094 12.042969 C 22.644531 11.628906 22.554688 11.207031 22.515625 10.789062 C 22.417969 9.773438 22.152344 8.800781 21.746094 7.859375 C 21.035156 6.207031 19.976562 4.820312 18.546875 3.726562 C 18.0625 3.355469 17.578125 2.984375 16.988281 2.792969 C 16.988281 2.792969 16.988281 2.796875 16.980469 2.757812 C 16.945312 2.753906 16.90625 2.75 16.832031 2.726562 C 16.75 2.613281 16.628906 2.511719 16.601562 2.386719 C 16.5625 2.203125 16.589844 2.007812 16.589844 1.816406 C 16.566406 1.8125 16.542969 1.8125 16.519531 1.808594 C 16.421875 1.964844 16.324219 2.117188 16.214844 2.285156 C 15.90625 1.804688 15.511719 1.484375 14.925781 1.3125 C 15.015625 1.503906 15.078125 1.640625 15.101562 1.78125 C 13.835938 1.109375 12.535156 1.214844 11.226562 1.605469 C 11.226562 1.605469 11.226562 1.601562 11.195312 1.605469 Z M 11.195312 1.605469 "/>
<path style=" stroke:none;fill-rule:nonzero;fill:rgb(13.333333%,86.666667%,35.686275%);fill-opacity:1;" d="M 16.984375 2.792969 C 17.578125 2.984375 18.0625 3.355469 18.546875 3.726562 C 19.976562 4.820312 21.035156 6.207031 21.746094 7.859375 C 22.152344 8.800781 22.417969 9.773438 22.515625 10.789062 C 22.554688 11.207031 22.644531 11.628906 22.621094 12.042969 C 22.574219 12.960938 22.5 13.882812 22.257812 14.78125 C 21.875 16.203125 21.25 17.503906 20.335938 18.648438 C 19.53125 19.652344 18.574219 20.496094 17.445312 21.140625 C 16.316406 21.785156 15.121094 22.246094 13.84375 22.4375 C 12.996094 22.566406 12.132812 22.667969 11.269531 22.519531 C 10.589844 22.402344 9.910156 22.308594 9.246094 22.183594 C 9.460938 22.15625 9.65625 22.152344 9.875 22.152344 C 9.925781 22.152344 9.957031 22.148438 10.011719 22.152344 C 10.3125 22.152344 10.589844 22.152344 10.886719 22.152344 C 10.914062 22.152344 10.925781 22.148438 10.964844 22.152344 C 11.183594 22.121094 11.375 22.085938 11.574219 22.03125 C 11.515625 21.785156 11.449219 21.558594 11.410156 21.332031 C 11.742188 21.371094 12.050781 21.410156 12.371094 21.464844 C 12.566406 21.574219 12.765625 21.644531 12.921875 21.769531 C 13.097656 21.90625 13.171875 21.828125 13.269531 21.691406 C 13.695312 21.832031 14.105469 21.960938 14.558594 22.105469 C 14.597656 21.746094 14.636719 21.417969 14.695312 21.089844 C 15.324219 20.847656 15.953125 20.664062 16.523438 20.359375 C 17.65625 19.746094 18.632812 18.933594 19.441406 17.90625 C 20.777344 16.222656 21.4375 14.300781 21.488281 12.175781 C 21.507812 11.429688 21.382812 10.664062 21.226562 9.929688 C 20.933594 8.507812 20.308594 7.21875 19.367188 6.117188 C 18.886719 5.550781 18.292969 5.085938 17.734375 4.558594 C 17.6875 4.320312 17.652344 4.101562 17.617188 3.898438 C 17.730469 3.851562 17.835938 3.804688 17.976562 3.746094 C 17.769531 3.589844 17.601562 3.484375 17.464844 3.351562 C 17.292969 3.179688 17.144531 2.980469 16.984375 2.792969 Z M 16.984375 2.792969 "/>
<path style=" stroke:none;fill-rule:nonzero;fill:rgb(20%,12.156863%,7.843137%);fill-opacity:1;" d="M 16.988281 2.792969 C 17.144531 2.980469 17.292969 3.179688 17.464844 3.351562 C 17.601562 3.484375 17.769531 3.589844 17.976562 3.746094 C 17.835938 3.804688 17.730469 3.851562 17.617188 3.898438 C 17.652344 4.101562 17.6875 4.320312 17.734375 4.585938 C 17.757812 4.8125 17.769531 4.992188 17.777344 5.195312 C 17.769531 5.589844 17.765625 5.957031 17.761719 6.34375 C 17.597656 6.605469 17.441406 6.851562 17.28125 7.101562 C 16.71875 6.753906 16.421875 6.25 16.222656 5.664062 C 16.1875 5.554688 16.113281 5.441406 16.023438 5.367188 C 15.753906 5.144531 15.46875 4.941406 15.167969 4.710938 C 14.46875 5.1875 13.769531 5.746094 12.867188 5.976562 C 12.910156 5.902344 12.957031 5.832031 13.023438 5.757812 C 13.128906 5.683594 13.222656 5.613281 13.300781 5.53125 C 13.699219 5.125 14.078125 4.699219 14.492188 4.308594 C 14.800781 4.019531 15.148438 3.765625 15.480469 3.5 C 15.472656 3.480469 15.46875 3.464844 15.464844 3.449219 C 15.378906 3.464844 15.292969 3.484375 15.191406 3.503906 C 15.144531 3.527344 15.117188 3.542969 15.089844 3.5625 C 15.089844 3.5625 15.089844 3.5625 15.066406 3.5625 C 14.238281 3.824219 13.667969 4.351562 13.304688 5.109375 C 13.308594 5.109375 13.304688 5.105469 13.292969 5.121094 C 13.265625 5.183594 13.253906 5.234375 13.246094 5.289062 C 13.246094 5.289062 13.246094 5.285156 13.234375 5.292969 C 13.207031 5.3125 13.199219 5.332031 13.1875 5.347656 C 13.1875 5.347656 13.1875 5.34375 13.171875 5.351562 C 13.125 5.394531 13.097656 5.433594 13.066406 5.480469 C 13.066406 5.496094 13.070312 5.523438 13.046875 5.523438 C 12.914062 5.601562 12.804688 5.679688 12.691406 5.753906 C 12.1875 6.09375 11.6875 6.4375 11.054688 6.539062 C 11.023438 6.488281 11.003906 6.453125 10.988281 6.414062 C 10.988281 6.414062 10.988281 6.414062 11.007812 6.414062 C 11.066406 6.394531 11.113281 6.382812 11.132812 6.355469 C 11.433594 5.898438 11.734375 5.441406 12.035156 4.984375 C 12.203125 4.730469 12.351562 4.460938 12.554688 4.238281 C 12.824219 3.941406 13.140625 3.683594 13.4375 3.410156 C 13.425781 3.394531 13.414062 3.375 13.402344 3.355469 C 13.132812 3.503906 12.863281 3.652344 12.578125 3.800781 C 12.53125 3.824219 12.503906 3.839844 12.472656 3.859375 C 12.476562 3.863281 12.476562 3.859375 12.460938 3.867188 C 12.4375 3.886719 12.425781 3.902344 12.414062 3.921875 C 12.417969 3.921875 12.414062 3.917969 12.394531 3.921875 C 12.328125 3.960938 12.28125 4 12.214844 4.046875 C 12.109375 4.144531 12.023438 4.234375 11.921875 4.335938 C 11.523438 4.71875 11.351562 5.199219 11.207031 5.714844 C 11.144531 5.878906 11.09375 6.03125 11.027344 6.183594 C 10.695312 6.417969 10.386719 6.652344 10.058594 6.886719 C 9.816406 6.984375 9.816406 6.984375 9.808594 6.820312 C 9.953125 6.507812 10.074219 6.207031 10.199219 5.90625 C 10.222656 5.914062 10.246094 5.921875 10.265625 5.929688 C 10.273438 6.015625 10.277344 6.101562 10.285156 6.214844 C 10.535156 5.863281 10.761719 5.535156 11 5.214844 C 11.167969 4.976562 11.347656 4.746094 11.535156 4.511719 C 11.535156 4.511719 11.53125 4.511719 11.503906 4.515625 C 11.179688 4.710938 10.875 4.90625 10.558594 5.109375 C 10.535156 5.132812 10.523438 5.148438 10.515625 5.167969 C 10.515625 5.167969 10.511719 5.167969 10.496094 5.167969 C 10.449219 5.1875 10.421875 5.207031 10.378906 5.230469 C 10.351562 5.25 10.339844 5.265625 10.316406 5.292969 C 10.070312 5.59375 9.84375 5.882812 9.59375 6.175781 C 9.378906 6.363281 9.183594 6.542969 8.980469 6.703125 C 8.988281 6.632812 8.984375 6.578125 9.007812 6.539062 C 9.503906 5.660156 10.117188 4.871094 10.871094 4.195312 C 10.917969 4.152344 10.953125 4.09375 11.007812 4.039062 C 11.054688 4.035156 11.085938 4.027344 11.117188 4.023438 C 11.109375 4.007812 11.105469 3.996094 11.101562 3.980469 C 11.0625 4 11.027344 4.019531 10.96875 4.039062 C 10.882812 4.058594 10.816406 4.078125 10.734375 4.101562 C 10.6875 4.121094 10.65625 4.140625 10.613281 4.15625 C 10.601562 4.15625 10.574219 4.160156 10.558594 4.164062 C 10.53125 4.179688 10.519531 4.195312 10.515625 4.21875 C 10.515625 4.21875 10.511719 4.214844 10.492188 4.21875 C 10.1875 4.378906 9.902344 4.539062 9.597656 4.695312 C 9.492188 4.695312 9.414062 4.699219 9.335938 4.683594 C 9.808594 4.21875 10.25 3.738281 10.75 3.339844 C 11.195312 2.988281 11.714844 2.742188 12.289062 2.691406 C 12.085938 2.867188 11.886719 3.023438 11.691406 3.183594 C 11.710938 3.203125 11.726562 3.222656 11.742188 3.246094 C 12.578125 2.941406 13.417969 2.636719 14.28125 2.320312 C 13.859375 2.320312 13.464844 2.320312 13.042969 2.320312 C 12.914062 2.316406 12.8125 2.316406 12.699219 2.296875 C 12.203125 2.074219 11.714844 1.871094 11.226562 1.652344 C 11.226562 1.621094 11.226562 1.613281 11.226562 1.601562 C 11.226562 1.601562 11.226562 1.605469 11.25 1.605469 C 11.558594 1.625 11.84375 1.644531 12.128906 1.664062 C 12.726562 1.703125 13.324219 1.714844 13.917969 1.789062 C 14.390625 1.847656 14.859375 1.980469 15.328125 2.085938 C 15.339844 2.097656 15.34375 2.101562 15.347656 2.105469 C 15.339844 2.097656 15.335938 2.085938 15.324219 2.058594 C 15.261719 1.949219 15.203125 1.863281 15.144531 1.773438 C 15.078125 1.640625 15.015625 1.503906 14.925781 1.3125 C 15.511719 1.484375 15.90625 1.804688 16.214844 2.285156 C 16.324219 2.117188 16.421875 1.964844 16.519531 1.808594 C 16.542969 1.8125 16.566406 1.8125 16.589844 1.816406 C 16.589844 2.007812 16.5625 2.203125 16.601562 2.386719 C 16.628906 2.511719 16.75 2.613281 16.859375 2.753906 C 16.921875 2.785156 16.957031 2.792969 16.988281 2.796875 C 16.988281 2.796875 16.988281 2.792969 16.988281 2.792969 M 14.101562 3.441406 C 14.09375 3.441406 14.085938 3.445312 14.058594 3.453125 C 14.066406 3.449219 14.074219 3.449219 14.101562 3.441406 M 16.75 3.121094 C 16.746094 3.101562 16.738281 3.085938 16.730469 3.070312 C 16.722656 3.074219 16.714844 3.082031 16.707031 3.085938 C 16.722656 3.105469 16.738281 3.128906 16.757812 3.191406 C 16.855469 3.34375 16.953125 3.5 17.054688 3.652344 C 17.085938 3.628906 17.117188 3.601562 17.148438 3.578125 C 17.015625 3.433594 16.882812 3.292969 16.75 3.121094 M 14.417969 3.378906 C 15.058594 3.164062 15.703125 2.945312 16.375 2.71875 C 15.554688 2.335938 14.785156 2.503906 13.949219 2.816406 C 14.316406 2.851562 14.613281 2.878906 14.863281 2.914062 C 14.636719 3.03125 14.40625 3.152344 14.179688 3.269531 C 14.191406 3.300781 14.203125 3.328125 14.214844 3.359375 C 14.269531 3.367188 14.320312 3.375 14.417969 3.378906 M 15.613281 3.402344 C 15.617188 3.410156 15.621094 3.421875 15.621094 3.429688 C 15.625 3.421875 15.628906 3.410156 15.613281 3.402344 M 17.136719 3.824219 C 17.140625 3.8125 17.144531 3.796875 17.148438 3.785156 C 17.140625 3.792969 17.132812 3.800781 17.136719 3.824219 M 10.242188 6.324219 C 10.242188 6.324219 10.25 6.320312 10.242188 6.324219 M 11.613281 3.304688 C 11.613281 3.304688 11.609375 3.296875 11.613281 3.304688 M 13.578125 3.359375 C 13.578125 3.359375 13.574219 3.363281 13.578125 3.359375 Z M 13.578125 3.359375 "/>
<path style=" stroke:none;fill-rule:nonzero;fill:rgb(97.254902%,83.921569%,69.411765%);fill-opacity:1;" d="M 9.851562 22.148438 C 9.65625 22.152344 9.460938 22.15625 9.238281 22.160156 C 9.183594 22.160156 9.15625 22.160156 9.105469 22.132812 C 9.03125 22.019531 8.972656 21.929688 8.917969 21.835938 C 8.476562 21.027344 8.054688 20.21875 8.671875 19.304688 C 8.722656 19.226562 8.746094 19.128906 8.808594 18.976562 C 8.386719 19.238281 8.078125 20.140625 8.25 20.582031 C 8.445312 21.09375 8.695312 21.582031 8.921875 22.082031 C 8.628906 22.113281 8.375 22.023438 8.136719 21.792969 C 8.082031 21.753906 8.050781 21.75 8.015625 21.742188 C 8.015625 21.742188 8.019531 21.742188 8.03125 21.722656 C 7.996094 21.589844 7.941406 21.476562 7.898438 21.359375 C 7.734375 20.914062 7.574219 20.464844 7.421875 20 C 7.539062 19.65625 7.648438 19.335938 7.769531 19.003906 C 8.117188 18.394531 8.453125 17.800781 8.800781 17.191406 C 8.734375 17.183594 8.679688 17.171875 8.609375 17.144531 C 8.277344 17.117188 7.960938 17.121094 7.644531 17.105469 C 7.179688 17.085938 6.941406 16.835938 6.957031 16.386719 C 7.230469 16.347656 7.511719 16.3125 7.820312 16.277344 C 8.417969 16.273438 8.988281 16.269531 9.582031 16.273438 C 9.84375 16.324219 10.085938 16.367188 10.328125 16.414062 C 10.332031 16.414062 10.324219 16.410156 10.328125 16.421875 C 10.355469 16.4375 10.375 16.441406 10.417969 16.453125 C 10.578125 16.503906 10.71875 16.546875 10.871094 16.605469 C 11.214844 16.804688 11.546875 16.988281 11.882812 17.203125 C 11.945312 17.796875 11.8125 18.320312 11.511719 18.804688 C 11.398438 18.988281 11.316406 19.191406 11.21875 19.382812 C 10.664062 20.519531 10.695312 20.089844 11.167969 21.316406 C 11.269531 21.574219 11.433594 21.804688 11.566406 22.050781 C 11.375 22.085938 11.183594 22.121094 10.960938 22.128906 C 10.769531 21.792969 10.59375 21.484375 10.4375 21.167969 C 10.1875 20.667969 10.105469 20.164062 10.425781 19.652344 C 10.503906 19.527344 10.535156 19.371094 10.585938 19.230469 C 10.550781 19.21875 10.515625 19.207031 10.484375 19.195312 C 10.277344 19.621094 9.914062 19.992188 10.039062 20.542969 C 10.175781 21.148438 10.4375 21.691406 10.867188 22.148438 C 10.589844 22.152344 10.3125 22.152344 10.007812 22.132812 C 9.828125 21.84375 9.652344 21.589844 9.539062 21.3125 C 9.316406 20.769531 9.117188 20.214844 9.457031 19.640625 C 9.546875 19.484375 9.632812 19.324219 9.742188 19.125 C 9.433594 19.269531 9.046875 19.992188 9.097656 20.316406 C 9.210938 20.980469 9.394531 21.621094 9.851562 22.148438 Z M 9.851562 22.148438 "/>
<path style=" stroke:none;fill-rule:nonzero;fill:rgb(97.254902%,83.921569%,69.803922%);fill-opacity:1;" d="M 1.730469 10.160156 C 1.609375 9.960938 1.484375 9.765625 1.367188 9.5625 C 1.171875 9.230469 1.1875 8.894531 1.421875 8.597656 C 1.726562 8.203125 2.054688 7.828125 2.386719 7.449219 C 2.5625 7.246094 2.765625 7.058594 2.984375 6.835938 C 3.019531 6.777344 3.023438 6.742188 3.027344 6.710938 C 3.027344 6.710938 3.03125 6.710938 3.046875 6.726562 C 3.214844 6.644531 3.363281 6.535156 3.519531 6.445312 C 3.726562 6.332031 3.945312 6.230469 4.167969 6.140625 C 4.953125 6.390625 5.492188 6.84375 5.640625 7.699219 C 5.683594 8.160156 5.730469 8.597656 5.769531 9.054688 C 5.722656 9.261719 5.679688 9.441406 5.625 9.632812 C 5.449219 9.769531 5.304688 9.96875 5.132812 10 C 4.78125 10.058594 4.632812 10.28125 4.492188 10.570312 C 4.347656 10.699219 4.222656 10.820312 4.085938 10.9375 C 4.070312 10.933594 4.042969 10.929688 4.03125 10.910156 C 3.542969 10.382812 3.292969 9.824219 3.671875 9.125 C 3.382812 9.460938 3.226562 9.800781 3.453125 10.210938 C 3.589844 10.460938 3.726562 10.710938 3.84375 10.96875 C 3.796875 10.980469 3.769531 10.988281 3.714844 10.988281 C 3.511719 10.96875 3.335938 10.953125 3.136719 10.933594 C 3.070312 10.90625 3.023438 10.890625 2.972656 10.851562 C 2.914062 10.761719 2.855469 10.695312 2.800781 10.605469 C 2.738281 10.449219 2.6875 10.3125 2.609375 10.1875 C 2.488281 9.988281 2.417969 9.792969 2.519531 9.558594 C 2.554688 9.472656 2.546875 9.367188 2.574219 9.261719 C 2.582031 9.230469 2.582031 9.207031 2.582031 9.183594 C 2.570312 9.210938 2.558594 9.238281 2.53125 9.273438 C 2.457031 9.496094 2.316406 9.726562 2.363281 9.910156 C 2.429688 10.171875 2.636719 10.398438 2.789062 10.660156 C 2.8125 10.730469 2.832031 10.78125 2.832031 10.828125 C 2.785156 10.824219 2.757812 10.820312 2.714844 10.808594 C 2.46875 10.644531 2.242188 10.492188 2.011719 10.320312 C 1.964844 10.167969 1.90625 10.039062 1.871094 9.910156 C 1.792969 9.640625 1.597656 9.394531 1.738281 9.089844 C 1.738281 9.085938 1.730469 9.085938 1.699219 9.09375 C 1.648438 9.242188 1.566406 9.390625 1.59375 9.515625 C 1.640625 9.757812 1.753906 9.988281 1.824219 10.21875 C 1.78125 10.195312 1.753906 10.179688 1.730469 10.160156 M 5.320312 9.320312 C 5.339844 9.183594 5.359375 9.046875 5.382812 8.914062 C 5.359375 8.910156 5.335938 8.910156 5.3125 8.90625 C 5.191406 9.191406 5.070312 9.476562 4.945312 9.761719 C 4.96875 9.773438 4.988281 9.78125 5.011719 9.792969 C 5.105469 9.648438 5.203125 9.503906 5.320312 9.320312 M 4.898438 9.898438 C 4.898438 9.898438 4.90625 9.886719 4.90625 9.886719 C 4.90625 9.886719 4.894531 9.886719 4.898438 9.898438 Z M 4.898438 9.898438 "/>
<path style=" stroke:none;fill-rule:nonzero;fill:rgb(13.333333%,86.666667%,35.686275%);fill-opacity:1;" d="M 4.15625 6.125 C 3.945312 6.230469 3.726562 6.332031 3.519531 6.445312 C 3.363281 6.535156 3.214844 6.644531 3.042969 6.726562 C 3.320312 6.273438 3.566406 5.789062 3.914062 5.402344 C 4.449219 4.808594 5.011719 4.222656 5.644531 3.738281 C 6.300781 3.238281 7.023438 2.800781 7.773438 2.460938 C 8.476562 2.140625 9.242188 1.957031 9.996094 1.753906 C 10.355469 1.65625 10.742188 1.652344 11.148438 1.621094 C 11.1875 1.65625 11.203125 1.664062 11.226562 1.667969 C 11.714844 1.871094 12.203125 2.074219 12.675781 2.296875 C 12.125 2.457031 11.589844 2.597656 11.039062 2.722656 C 10.640625 2.769531 10.253906 2.816406 9.875 2.902344 C 8.472656 3.210938 7.226562 3.851562 6.109375 4.746094 C 5.890625 4.921875 5.722656 5.164062 5.515625 5.390625 C 5.097656 5.59375 4.691406 5.789062 4.277344 6 C 4.230469 6.054688 4.191406 6.089844 4.15625 6.125 Z M 4.15625 6.125 "/>
<path style=" stroke:none;fill-rule:nonzero;fill:rgb(0.392157%,75.686275%,41.568627%);fill-opacity:1;" d="M 7.757812 19.015625 C 7.648438 19.335938 7.539062 19.65625 7.394531 20 C 6.894531 20 6.425781 19.960938 5.957031 19.96875 C 5.792969 19.972656 5.628906 20.082031 5.460938 20.144531 C 5.164062 20.085938 4.863281 20.027344 4.523438 19.960938 C 4.535156 19.832031 4.554688 19.65625 4.574219 19.433594 C 4.671875 18.921875 4.769531 18.460938 4.871094 17.976562 C 4.894531 17.804688 4.914062 17.660156 4.953125 17.5 C 5.128906 16.917969 5.300781 16.351562 5.433594 15.773438 C 5.496094 15.492188 5.613281 15.488281 5.84375 15.574219 C 6.304688 15.742188 6.777344 15.890625 7.261719 16.058594 C 7.449219 16.140625 7.621094 16.207031 7.792969 16.273438 C 7.511719 16.3125 7.230469 16.347656 6.957031 16.386719 C 6.941406 16.835938 7.179688 17.085938 7.644531 17.105469 C 7.960938 17.121094 8.277344 17.117188 8.59375 17.160156 C 8.492188 17.230469 8.390625 17.261719 8.285156 17.292969 C 7.503906 17.519531 7.214844 18.460938 7.757812 19.015625 M 6.265625 16.992188 C 6.324219 16.894531 6.402344 16.800781 6.4375 16.691406 C 6.515625 16.457031 6.394531 16.167969 6.199219 16.171875 C 6.042969 16.175781 5.839844 16.242188 5.75 16.355469 C 5.605469 16.535156 5.574219 16.785156 5.75 16.984375 C 5.886719 17.140625 6.058594 17.136719 6.265625 16.992188 M 5.875 18.816406 C 5.777344 18.589844 5.585938 18.535156 5.390625 18.621094 C 5.171875 18.710938 5.054688 18.925781 5.125 19.152344 C 5.171875 19.296875 5.320312 19.484375 5.449219 19.507812 C 5.675781 19.542969 5.859375 19.386719 5.902344 19.140625 C 5.917969 19.050781 5.898438 18.953125 5.875 18.816406 Z M 5.875 18.816406 "/>
<path style=" stroke:none;fill-rule:nonzero;fill:rgb(13.333333%,86.666667%,35.686275%);fill-opacity:1;" d="M 4.867188 18 C 4.769531 18.460938 4.671875 18.921875 4.570312 19.40625 C 3.917969 18.835938 3.40625 18.128906 2.976562 17.363281 C 2.382812 16.308594 1.949219 15.183594 1.738281 13.984375 C 1.667969 13.585938 1.632812 13.175781 1.609375 12.769531 C 1.585938 12.414062 1.589844 12.054688 1.605469 11.699219 C 1.632812 11.203125 1.683594 10.707031 1.726562 10.1875 C 1.753906 10.179688 1.78125 10.195312 1.824219 10.214844 C 1.839844 10.21875 1.835938 10.21875 1.84375 10.234375 C 1.863281 10.261719 1.882812 10.269531 1.90625 10.296875 C 1.949219 10.324219 1.980469 10.332031 2.011719 10.339844 C 2.242188 10.492188 2.46875 10.644531 2.710938 10.832031 C 2.546875 11.753906 2.609375 12.648438 2.746094 13.527344 C 2.988281 15.046875 3.566406 16.4375 4.480469 17.679688 C 4.578125 17.808594 4.738281 17.894531 4.867188 18 Z M 4.867188 18 "/>
<path style=" stroke:none;fill-rule:nonzero;fill:rgb(0.392157%,70.196078%,36.862745%);fill-opacity:1;" d="M 5.464844 20.167969 C 5.628906 20.082031 5.792969 19.972656 5.957031 19.96875 C 6.425781 19.960938 6.894531 20 7.386719 20.019531 C 7.574219 20.464844 7.734375 20.914062 7.898438 21.359375 C 7.941406 21.476562 7.996094 21.589844 8.03125 21.726562 C 7.566406 21.585938 7.152344 21.824219 6.722656 21.890625 C 6.394531 21.941406 6.070312 22.035156 5.695312 22.121094 C 5.675781 21.667969 5.675781 21.238281 5.636719 20.8125 C 5.617188 20.601562 5.523438 20.398438 5.464844 20.167969 M 6.136719 20.75 C 6.132812 20.878906 6.105469 21.007812 6.128906 21.128906 C 6.171875 21.335938 6.320312 21.5 6.527344 21.421875 C 6.671875 21.367188 6.859375 21.179688 6.867188 21.046875 C 6.875 20.875 6.761719 20.640625 6.621094 20.535156 C 6.464844 20.414062 6.265625 20.515625 6.136719 20.75 Z M 6.136719 20.75 "/>
<path style=" stroke:none;fill-rule:nonzero;fill:rgb(36.862745%,21.176471%,14.117647%);fill-opacity:1;" d="M 15.121094 1.777344 C 15.203125 1.863281 15.261719 1.949219 15.324219 2.058594 C 15.328125 2.078125 15.328125 2.078125 15.328125 2.078125 C 14.859375 1.980469 14.390625 1.847656 13.917969 1.789062 C 13.324219 1.714844 12.726562 1.703125 12.128906 1.664062 C 11.84375 1.644531 11.558594 1.625 11.25 1.601562 C 12.535156 1.214844 13.835938 1.109375 15.121094 1.777344 Z M 15.121094 1.777344 "/>
<path style=" stroke:none;fill-rule:nonzero;fill:rgb(87.058824%,65.882353%,46.666667%);fill-opacity:1;" d="M 8.9375 22.09375 C 8.695312 21.582031 8.445312 21.09375 8.25 20.582031 C 8.078125 20.140625 8.386719 19.238281 8.808594 18.976562 C 8.746094 19.128906 8.722656 19.226562 8.671875 19.304688 C 8.054688 20.21875 8.476562 21.027344 8.917969 21.835938 C 8.972656 21.929688 9.03125 22.019531 9.085938 22.132812 C 9.039062 22.136719 8.996094 22.121094 8.9375 22.09375 Z M 8.9375 22.09375 "/>
<path style=" stroke:none;fill-rule:nonzero;fill:rgb(13.333333%,86.666667%,35.686275%);fill-opacity:1;" d="M 16.984375 2.777344 C 16.957031 2.792969 16.921875 2.785156 16.878906 2.761719 C 16.90625 2.75 16.945312 2.753906 16.984375 2.777344 Z M 16.984375 2.777344 "/>
<path style=" stroke:none;fill-rule:nonzero;fill:rgb(0.392157%,70.196078%,36.862745%);fill-opacity:1;" d="M 8.023438 21.761719 C 8.050781 21.75 8.082031 21.753906 8.125 21.777344 C 8.097656 21.789062 8.066406 21.78125 8.023438 21.761719 Z M 8.023438 21.761719 "/>
<path style=" stroke:none;fill-rule:nonzero;fill:rgb(13.333333%,86.666667%,35.686275%);fill-opacity:1;" d="M 3.011719 6.714844 C 3.023438 6.742188 3.019531 6.777344 2.996094 6.820312 C 2.980469 6.792969 2.988281 6.757812 3.011719 6.714844 Z M 3.011719 6.714844 "/>
<path style=" stroke:none;fill-rule:nonzero;fill:rgb(36.862745%,21.176471%,14.117647%);fill-opacity:1;" d="M 11.226562 1.652344 C 11.203125 1.664062 11.1875 1.65625 11.171875 1.625 C 11.167969 1.613281 11.195312 1.605469 11.210938 1.601562 C 11.226562 1.613281 11.226562 1.621094 11.226562 1.652344 Z M 11.226562 1.652344 "/>
<path style=" stroke:none;fill-rule:nonzero;fill:rgb(12.941176%,89.803922%,32.156863%);fill-opacity:1;" d="M 17.785156 5.171875 C 17.769531 4.992188 17.757812 4.8125 17.746094 4.605469 C 18.292969 5.085938 18.886719 5.550781 19.367188 6.117188 C 20.308594 7.21875 20.933594 8.507812 21.226562 9.929688 C 21.382812 10.664062 21.507812 11.429688 21.488281 12.175781 C 21.4375 14.300781 20.777344 16.222656 19.441406 17.90625 C 18.632812 18.933594 17.65625 19.746094 16.523438 20.359375 C 15.953125 20.664062 15.324219 20.847656 14.695312 21.0625 C 14.691406 20.898438 14.710938 20.753906 14.753906 20.609375 C 14.988281 20.523438 15.199219 20.445312 15.429688 20.359375 C 15.796875 20.183594 16.144531 20.007812 16.519531 19.832031 C 16.730469 19.699219 16.921875 19.570312 17.136719 19.4375 C 18.992188 18.144531 20.175781 16.410156 20.710938 14.230469 C 20.613281 14.277344 20.558594 14.355469 20.492188 14.425781 C 19.953125 14.984375 19.316406 15.386719 18.5625 15.589844 C 18.347656 15.648438 18.113281 15.652344 17.890625 15.660156 C 18.128906 15.300781 18.363281 14.964844 18.613281 14.621094 C 18.644531 14.605469 18.65625 14.589844 18.671875 14.578125 C 18.675781 14.582031 18.6875 14.582031 18.707031 14.582031 C 19.746094 14.191406 20.449219 13.460938 20.976562 12.515625 C 20.988281 12.054688 21.007812 11.589844 20.96875 11.132812 C 20.878906 10.167969 20.644531 9.238281 20.203125 8.34375 C 19.640625 7.085938 18.839844 6.03125 17.785156 5.171875 Z M 17.785156 5.171875 "/>
<path style=" stroke:none;fill-rule:nonzero;fill:rgb(0.392157%,75.686275%,41.568627%);fill-opacity:1;" d="M 13.246094 21.683594 C 13.171875 21.828125 13.097656 21.90625 12.921875 21.769531 C 12.765625 21.644531 12.566406 21.574219 12.359375 21.445312 C 11.953125 21.230469 11.574219 21.042969 11.183594 20.84375 C 11.136719 20.726562 11.078125 20.628906 11.0625 20.523438 C 11.046875 20.421875 11.03125 20.273438 11.085938 20.214844 C 11.660156 19.585938 12.019531 18.839844 12.320312 18.046875 C 12.402344 18.011719 12.464844 17.984375 12.550781 17.949219 C 12.757812 17.878906 12.941406 17.820312 13.121094 17.777344 C 13.046875 17.90625 12.960938 18.003906 12.925781 18.121094 C 12.867188 18.335938 12.910156 18.554688 13.136719 18.636719 C 13.363281 18.71875 13.558594 18.628906 13.671875 18.398438 C 13.851562 18.015625 13.628906 17.757812 13.136719 17.742188 C 13.476562 17.613281 13.808594 17.503906 14.140625 17.414062 C 14.140625 17.457031 14.144531 17.484375 14.144531 17.539062 C 14.140625 17.734375 14.140625 17.902344 14.140625 18.097656 C 14.101562 18.378906 14.058594 18.636719 14.011719 18.914062 C 13.769531 19.746094 13.535156 20.554688 13.304688 21.367188 C 13.277344 21.46875 13.265625 21.578125 13.246094 21.683594 M 12.507812 21.015625 C 12.578125 21.050781 12.664062 21.132812 12.714844 21.113281 C 12.863281 21.054688 13.054688 20.996094 13.128906 20.875 C 13.25 20.679688 13.261719 20.414062 13.058594 20.257812 C 12.96875 20.1875 12.75 20.207031 12.628906 20.269531 C 12.402344 20.386719 12.363281 20.660156 12.507812 21.015625 Z M 12.507812 21.015625 "/>
<path style=" stroke:none;fill-rule:nonzero;fill:rgb(0.392157%,69.019608%,36.862745%);fill-opacity:1;" d="M 14.140625 18.070312 C 14.140625 17.902344 14.140625 17.734375 14.164062 17.535156 C 14.46875 17.40625 14.625 17.511719 14.644531 17.796875 C 14.691406 18.371094 14.734375 18.949219 14.753906 19.527344 C 14.769531 19.886719 14.742188 20.25 14.730469 20.613281 C 14.710938 20.753906 14.691406 20.898438 14.671875 21.0625 C 14.636719 21.417969 14.597656 21.746094 14.558594 22.105469 C 14.105469 21.960938 13.695312 21.832031 13.269531 21.691406 C 13.265625 21.578125 13.277344 21.46875 13.304688 21.367188 C 13.535156 20.554688 13.769531 19.746094 14.03125 18.914062 C 14.394531 18.664062 14.425781 18.375 14.140625 18.070312 M 14.320312 20.769531 C 14.15625 20.480469 13.964844 20.410156 13.761719 20.554688 C 13.503906 20.734375 13.492188 21.191406 13.746094 21.375 C 13.925781 21.503906 14.125 21.488281 14.234375 21.304688 C 14.3125 21.167969 14.300781 20.980469 14.320312 20.769531 Z M 14.320312 20.769531 "/>
<path style=" stroke:none;fill-rule:nonzero;fill:rgb(95.686275%,81.176471%,69.019608%);fill-opacity:1;" d="M 12.304688 18.050781 C 12.019531 18.839844 11.660156 19.585938 11.085938 20.214844 C 11.03125 20.273438 11.046875 20.421875 11.0625 20.523438 C 11.078125 20.628906 11.136719 20.726562 11.191406 20.863281 C 11.265625 21.046875 11.324219 21.191406 11.382812 21.335938 C 11.449219 21.558594 11.515625 21.785156 11.574219 22.03125 C 11.433594 21.804688 11.269531 21.574219 11.167969 21.316406 C 10.695312 20.089844 10.664062 20.519531 11.21875 19.382812 C 11.316406 19.191406 11.398438 18.988281 11.511719 18.804688 C 11.8125 18.320312 11.945312 17.796875 11.902344 17.207031 C 12.046875 17.472656 12.175781 17.761719 12.304688 18.050781 Z M 12.304688 18.050781 "/>
<path style=" stroke:none;fill-rule:nonzero;fill:rgb(87.058824%,66.27451%,47.058824%);fill-opacity:1;" d="M 10.886719 22.152344 C 10.4375 21.691406 10.175781 21.148438 10.039062 20.542969 C 9.914062 19.992188 10.277344 19.621094 10.484375 19.195312 C 10.515625 19.207031 10.550781 19.21875 10.585938 19.230469 C 10.535156 19.371094 10.503906 19.527344 10.425781 19.652344 C 10.105469 20.164062 10.1875 20.667969 10.4375 21.167969 C 10.59375 21.484375 10.769531 21.792969 10.9375 22.125 C 10.925781 22.148438 10.914062 22.152344 10.886719 22.152344 Z M 10.886719 22.152344 "/>
<path style=" stroke:none;fill-rule:nonzero;fill:rgb(87.058824%,65.882353%,46.666667%);fill-opacity:1;" d="M 9.875 22.152344 C 9.394531 21.621094 9.210938 20.980469 9.097656 20.316406 C 9.046875 19.992188 9.433594 19.269531 9.742188 19.125 C 9.632812 19.324219 9.546875 19.484375 9.457031 19.640625 C 9.117188 20.214844 9.316406 20.769531 9.539062 21.3125 C 9.652344 21.589844 9.828125 21.84375 9.984375 22.128906 C 9.957031 22.148438 9.925781 22.152344 9.875 22.152344 Z M 9.875 22.152344 "/>
<path style=" stroke:none;fill-rule:nonzero;fill:rgb(0.392157%,70.196078%,36.862745%);fill-opacity:1;" d="M 11.410156 21.332031 C 11.324219 21.191406 11.265625 21.046875 11.203125 20.882812 C 11.574219 21.042969 11.953125 21.230469 12.34375 21.429688 C 12.050781 21.410156 11.742188 21.371094 11.410156 21.332031 Z M 11.410156 21.332031 "/>
<path style=" stroke:none;fill-rule:nonzero;fill:rgb(96.470588%,83.137255%,69.019608%);fill-opacity:1;" d="M 10.078125 6.882812 C 10.386719 6.652344 10.695312 6.417969 11.023438 6.203125 C 11.023438 6.289062 11.007812 6.351562 10.988281 6.414062 C 10.988281 6.414062 10.988281 6.414062 10.972656 6.425781 C 10.949219 6.484375 10.949219 6.535156 10.949219 6.582031 C 10.988281 6.570312 11.03125 6.5625 11.074219 6.550781 C 11.6875 6.4375 12.1875 6.09375 12.691406 5.753906 C 12.804688 5.679688 12.914062 5.601562 13.050781 5.546875 C 13.046875 5.628906 13.023438 5.695312 13.003906 5.757812 C 12.957031 5.832031 12.910156 5.902344 12.867188 5.976562 C 13.769531 5.746094 14.46875 5.1875 15.167969 4.710938 C 15.46875 4.941406 15.753906 5.144531 16.023438 5.367188 C 16.113281 5.441406 16.1875 5.554688 16.222656 5.664062 C 16.421875 6.25 16.71875 6.753906 17.28125 7.101562 C 17.441406 6.851562 17.597656 6.605469 17.78125 6.332031 C 17.882812 6.246094 17.960938 6.183594 18.042969 6.136719 C 18.46875 5.890625 18.738281 6.027344 18.777344 6.515625 C 18.792969 6.699219 18.78125 6.886719 18.773438 7.09375 C 18.722656 7.296875 18.675781 7.476562 18.617188 7.671875 C 18.542969 7.785156 18.476562 7.886719 18.398438 8 C 18.082031 8.269531 17.730469 8.371094 17.347656 8.355469 C 17.3125 8.089844 17.273438 7.847656 17.242188 7.582031 C 17.25 7.417969 17.25 7.273438 17.25 7.140625 C 16.753906 7.316406 16.261719 7.257812 15.761719 7.15625 C 15.386719 7.082031 15.003906 6.996094 14.628906 6.996094 C 13.972656 6.996094 13.445312 7.34375 12.949219 7.730469 C 12.570312 8.027344 12.558594 8.035156 12.199219 7.738281 C 11.566406 7.210938 10.902344 7.105469 10.171875 7.496094 C 10.140625 7.339844 10.117188 7.207031 10.09375 7.050781 C 10.089844 6.980469 10.082031 6.929688 10.078125 6.882812 M 17.847656 7.023438 C 17.839844 7.078125 17.828125 7.132812 17.859375 7.1875 C 17.890625 7.1875 17.917969 7.1875 17.960938 7.226562 C 18.265625 7.457031 18.042969 7.675781 17.957031 7.914062 C 18.027344 7.871094 18.097656 7.824219 18.214844 7.777344 C 18.300781 7.621094 18.386719 7.464844 18.507812 7.277344 C 18.535156 7.105469 18.585938 6.933594 18.582031 6.761719 C 18.578125 6.671875 18.503906 6.535156 18.429688 6.503906 C 18.359375 6.476562 18.214844 6.539062 18.152344 6.605469 C 18.042969 6.722656 17.96875 6.875 17.882812 7.011719 C 17.882812 7.011719 17.882812 7.007812 17.847656 7.023438 M 14.664062 6.375 C 14.257812 6.441406 13.855469 6.515625 13.453125 6.574219 C 13.183594 6.613281 13.136719 6.761719 13.222656 7.011719 C 13.941406 6.800781 14.652344 6.488281 15.429688 6.78125 C 15.4375 6.746094 15.445312 6.714844 15.453125 6.679688 C 15.203125 6.585938 14.957031 6.488281 14.664062 6.375 M 11.910156 7.121094 C 12.199219 7.085938 12.023438 6.910156 12.039062 6.761719 C 11.414062 6.765625 10.769531 6.566406 10.308594 7.175781 C 10.820312 7.015625 11.335938 7.003906 11.910156 7.121094 Z M 11.910156 7.121094 "/>
<path style=" stroke:none;fill-rule:nonzero;fill:rgb(26.666667%,0.392157%,60%);fill-opacity:1;" d="M 9.332031 4.703125 C 9.414062 4.699219 9.492188 4.695312 9.589844 4.714844 C 9.335938 5.160156 9.0625 5.585938 8.765625 6.011719 C 8.597656 6.0625 8.453125 6.109375 8.285156 6.160156 C 7.386719 6.453125 6.617188 6.933594 5.871094 7.488281 C 5.828125 7.507812 5.800781 7.523438 5.769531 7.515625 C 5.71875 6.777344 5.273438 6.371094 4.699219 6.046875 C 5.414062 5.738281 6.105469 5.421875 6.8125 5.152344 C 7.484375 4.898438 8.175781 4.691406 8.878906 4.460938 C 9.027344 4.4375 9.148438 4.414062 9.289062 4.40625 C 9.289062 4.503906 9.273438 4.59375 9.246094 4.691406 C 9.230469 4.722656 9.230469 4.75 9.226562 4.773438 C 9.238281 4.765625 9.253906 4.761719 9.28125 4.75 C 9.308594 4.730469 9.320312 4.714844 9.332031 4.699219 C 9.332031 4.699219 9.332031 4.703125 9.332031 4.703125 Z M 9.332031 4.703125 "/>
<path style=" stroke:none;fill-rule:nonzero;fill:rgb(15.686275%,71.372549%,98.823529%);fill-opacity:1;" d="M 18.414062 7.988281 C 18.476562 7.886719 18.542969 7.785156 18.644531 7.671875 C 18.792969 7.664062 18.914062 7.6875 19.007812 7.65625 C 19.117188 7.617188 19.207031 7.523438 19.304688 7.453125 C 19.230469 7.359375 19.175781 7.246094 19.085938 7.175781 C 19.003906 7.113281 18.882812 7.105469 18.78125 7.070312 C 18.78125 6.886719 18.792969 6.699219 18.777344 6.515625 C 18.738281 6.027344 18.46875 5.890625 18.042969 6.136719 C 17.960938 6.183594 17.882812 6.246094 17.785156 6.3125 C 17.765625 5.957031 17.769531 5.589844 17.777344 5.195312 C 18.839844 6.03125 19.640625 7.085938 20.183594 8.355469 C 19.804688 8.503906 19.441406 8.621094 19.0625 8.722656 C 18.839844 8.46875 18.625 8.226562 18.414062 7.988281 Z M 18.414062 7.988281 "/>
<path style=" stroke:none;fill-rule:nonzero;fill:rgb(35.294118%,21.960784%,14.901961%);fill-opacity:1;" d="M 9.253906 4.683594 C 9.273438 4.59375 9.289062 4.503906 9.300781 4.386719 C 9.382812 4.226562 9.476562 4.097656 9.5625 3.964844 C 9.625 3.875 9.667969 3.765625 9.738281 3.6875 C 9.855469 3.558594 9.992188 3.449219 10.136719 3.320312 C 10.453125 3.121094 10.753906 2.929688 11.054688 2.742188 C 11.589844 2.597656 12.125 2.457031 12.683594 2.316406 C 12.8125 2.316406 12.914062 2.316406 13.039062 2.339844 C 12.847656 2.445312 12.632812 2.527344 12.402344 2.613281 C 12.355469 2.636719 12.324219 2.65625 12.296875 2.671875 C 11.714844 2.742188 11.195312 2.988281 10.75 3.339844 C 10.25 3.738281 9.808594 4.21875 9.335938 4.683594 C 9.332031 4.703125 9.332031 4.699219 9.316406 4.695312 C 9.289062 4.691406 9.277344 4.691406 9.265625 4.691406 C 9.261719 4.6875 9.253906 4.683594 9.253906 4.683594 Z M 9.253906 4.683594 "/>
<path style=" stroke:none;fill-rule:nonzero;fill:rgb(33.72549%,19.215686%,12.941176%);fill-opacity:1;" d="M 11.007812 6.414062 C 11.007812 6.351562 11.023438 6.289062 11.046875 6.203125 C 11.09375 6.03125 11.144531 5.878906 11.21875 5.722656 C 11.40625 5.398438 11.570312 5.078125 11.730469 4.757812 C 11.800781 4.617188 11.867188 4.46875 11.9375 4.324219 C 12.023438 4.234375 12.109375 4.144531 12.238281 4.046875 C 12.320312 4 12.367188 3.957031 12.414062 3.917969 C 12.414062 3.917969 12.417969 3.921875 12.429688 3.914062 C 12.453125 3.890625 12.464844 3.875 12.476562 3.859375 C 12.476562 3.859375 12.476562 3.863281 12.492188 3.859375 C 12.539062 3.839844 12.566406 3.820312 12.59375 3.800781 C 12.863281 3.652344 13.132812 3.503906 13.402344 3.355469 C 13.414062 3.375 13.425781 3.394531 13.4375 3.410156 C 13.140625 3.683594 12.824219 3.941406 12.554688 4.238281 C 12.351562 4.460938 12.203125 4.730469 12.035156 4.984375 C 11.734375 5.441406 11.433594 5.898438 11.132812 6.355469 C 11.113281 6.382812 11.066406 6.394531 11.007812 6.414062 Z M 11.007812 6.414062 "/>
<path style=" stroke:none;fill-rule:nonzero;fill:rgb(32.941176%,19.607843%,13.72549%);fill-opacity:1;" d="M 10.992188 4.039062 C 10.953125 4.09375 10.917969 4.152344 10.871094 4.195312 C 10.117188 4.871094 9.503906 5.660156 9.007812 6.539062 C 8.984375 6.578125 8.988281 6.632812 8.980469 6.703125 C 8.984375 6.722656 8.984375 6.722656 8.972656 6.722656 C 8.953125 6.726562 8.941406 6.730469 8.941406 6.730469 C 8.945312 6.746094 8.949219 6.757812 8.957031 6.785156 C 8.957031 6.792969 8.957031 6.816406 8.941406 6.828125 C 8.84375 6.953125 8.765625 7.070312 8.679688 7.203125 C 8.640625 7.242188 8.613281 7.265625 8.578125 7.292969 C 8.566406 7.230469 8.558594 7.179688 8.554688 7.109375 C 8.574219 6.980469 8.589844 6.875 8.625 6.761719 C 8.691406 6.644531 8.742188 6.539062 8.796875 6.433594 C 9.1875 5.660156 9.5625 4.875 10.347656 4.40625 C 10.417969 4.363281 10.460938 4.28125 10.511719 4.214844 C 10.511719 4.214844 10.515625 4.21875 10.527344 4.210938 C 10.558594 4.195312 10.570312 4.179688 10.574219 4.160156 C 10.574219 4.160156 10.601562 4.15625 10.632812 4.15625 C 10.695312 4.136719 10.722656 4.117188 10.753906 4.097656 C 10.816406 4.078125 10.882812 4.058594 10.96875 4.039062 C 10.988281 4.039062 10.992188 4.039062 10.992188 4.039062 Z M 10.992188 4.039062 "/>
<path style=" stroke:none;fill-rule:nonzero;fill:rgb(33.333333%,19.215686%,12.941176%);fill-opacity:1;" d="M 14.90625 2.90625 C 14.613281 2.878906 14.316406 2.851562 13.949219 2.816406 C 14.785156 2.503906 15.554688 2.335938 16.375 2.71875 C 15.703125 2.945312 15.058594 3.164062 14.398438 3.359375 C 14.660156 3.167969 14.941406 2.992188 15.21875 2.820312 C 15.214844 2.808594 15.210938 2.796875 15.210938 2.785156 C 15.109375 2.828125 15.007812 2.867188 14.90625 2.90625 Z M 14.90625 2.90625 "/>
<path style=" stroke:none;fill-rule:nonzero;fill:rgb(33.333333%,19.215686%,12.941176%);fill-opacity:1;" d="M 10.570312 5.101562 C 10.875 4.90625 11.179688 4.710938 11.503906 4.515625 C 11.523438 4.515625 11.527344 4.515625 11.527344 4.515625 C 11.347656 4.746094 11.167969 4.976562 11 5.214844 C 10.761719 5.535156 10.535156 5.863281 10.285156 6.214844 C 10.277344 6.101562 10.273438 6.015625 10.265625 5.929688 C 10.246094 5.921875 10.222656 5.914062 10.199219 5.90625 C 10.074219 6.207031 9.953125 6.507812 9.804688 6.804688 C 9.785156 6.777344 9.789062 6.757812 9.792969 6.710938 C 9.949219 6.296875 10.097656 5.910156 10.25 5.523438 C 10.277344 5.441406 10.304688 5.363281 10.335938 5.28125 C 10.339844 5.265625 10.351562 5.25 10.398438 5.230469 C 10.457031 5.203125 10.484375 5.1875 10.511719 5.167969 C 10.511719 5.167969 10.515625 5.167969 10.527344 5.160156 C 10.550781 5.136719 10.5625 5.121094 10.570312 5.101562 Z M 10.570312 5.101562 "/>
<path style=" stroke:none;fill-rule:nonzero;fill:rgb(33.72549%,19.215686%,12.941176%);fill-opacity:1;" d="M 13.023438 5.757812 C 13.023438 5.695312 13.046875 5.628906 13.070312 5.542969 C 13.070312 5.523438 13.066406 5.496094 13.085938 5.480469 C 13.132812 5.421875 13.160156 5.382812 13.1875 5.34375 C 13.1875 5.34375 13.1875 5.347656 13.199219 5.339844 C 13.226562 5.316406 13.234375 5.300781 13.246094 5.285156 C 13.246094 5.285156 13.246094 5.289062 13.261719 5.273438 C 13.289062 5.210938 13.296875 5.160156 13.304688 5.105469 C 13.304688 5.105469 13.308594 5.109375 13.328125 5.105469 C 13.390625 5.070312 13.4375 5.039062 13.480469 5 C 13.875 4.621094 14.265625 4.238281 14.667969 3.867188 C 14.792969 3.75 14.945312 3.664062 15.089844 3.5625 C 15.089844 3.5625 15.089844 3.5625 15.105469 3.5625 C 15.152344 3.542969 15.179688 3.523438 15.210938 3.503906 C 15.292969 3.484375 15.378906 3.464844 15.464844 3.449219 C 15.46875 3.464844 15.472656 3.480469 15.480469 3.5 C 15.148438 3.765625 14.800781 4.019531 14.492188 4.308594 C 14.078125 4.699219 13.699219 5.125 13.300781 5.53125 C 13.222656 5.613281 13.128906 5.683594 13.023438 5.757812 Z M 13.023438 5.757812 "/>
<path style=" stroke:none;fill-rule:nonzero;fill:rgb(36.862745%,21.176471%,14.117647%);fill-opacity:1;" d="M 12.417969 2.613281 C 12.632812 2.527344 12.847656 2.445312 13.066406 2.339844 C 13.464844 2.320312 13.859375 2.320312 14.28125 2.320312 C 13.417969 2.636719 12.578125 2.941406 11.742188 3.246094 C 11.726562 3.222656 11.710938 3.203125 11.691406 3.183594 C 11.886719 3.023438 12.085938 2.867188 12.289062 2.691406 C 12.296875 2.671875 12.296875 2.671875 12.316406 2.671875 C 12.363281 2.652344 12.390625 2.632812 12.417969 2.613281 Z M 12.417969 2.613281 "/>
<path style=" stroke:none;fill-rule:nonzero;fill:rgb(42.352941%,25.098039%,18.039216%);fill-opacity:1;" d="M 10.492188 4.21875 C 10.460938 4.28125 10.417969 4.363281 10.347656 4.40625 C 9.5625 4.875 9.1875 5.660156 8.796875 6.433594 C 8.742188 6.539062 8.691406 6.644531 8.625 6.738281 C 8.609375 6.664062 8.613281 6.601562 8.632812 6.523438 C 8.695312 6.34375 8.742188 6.175781 8.789062 6.011719 C 9.0625 5.585938 9.335938 5.160156 9.613281 4.71875 C 9.902344 4.539062 10.1875 4.378906 10.492188 4.21875 Z M 10.492188 4.21875 "/>
<path style=" stroke:none;fill-rule:nonzero;fill:rgb(15.686275%,69.803922%,97.647059%);fill-opacity:1;" d="M 9.789062 6.734375 C 9.789062 6.757812 9.785156 6.777344 9.785156 6.816406 C 9.816406 6.984375 9.816406 6.984375 10.058594 6.886719 C 10.082031 6.929688 10.089844 6.980469 10.066406 7.050781 C 9.679688 6.988281 9.320312 6.902344 8.957031 6.816406 C 8.957031 6.816406 8.957031 6.792969 8.96875 6.773438 C 8.980469 6.742188 8.980469 6.730469 8.984375 6.722656 C 9.183594 6.542969 9.378906 6.363281 9.609375 6.195312 C 9.691406 6.386719 9.742188 6.558594 9.789062 6.734375 Z M 9.789062 6.734375 "/>
<path style=" stroke:none;fill-rule:nonzero;fill:rgb(41.960784%,24.705882%,16.470588%);fill-opacity:1;" d="M 15.066406 3.5625 C 14.945312 3.664062 14.792969 3.75 14.667969 3.867188 C 14.265625 4.238281 13.875 4.621094 13.480469 5 C 13.4375 5.039062 13.390625 5.070312 13.324219 5.105469 C 13.667969 4.351562 14.238281 3.824219 15.066406 3.5625 Z M 15.066406 3.5625 "/>
<path style=" stroke:none;fill-rule:nonzero;fill:rgb(38.039216%,23.137255%,27.058824%);fill-opacity:1;" d="M 9.792969 6.710938 C 9.742188 6.558594 9.691406 6.386719 9.628906 6.191406 C 9.84375 5.882812 10.070312 5.59375 10.316406 5.292969 C 10.304688 5.363281 10.277344 5.441406 10.25 5.523438 C 10.097656 5.910156 9.949219 6.296875 9.792969 6.710938 Z M 9.792969 6.710938 "/>
<path style=" stroke:none;fill-rule:nonzero;fill:rgb(41.960784%,24.705882%,16.470588%);fill-opacity:1;" d="M 11.921875 4.335938 C 11.867188 4.46875 11.800781 4.617188 11.730469 4.757812 C 11.570312 5.078125 11.40625 5.398438 11.234375 5.710938 C 11.351562 5.199219 11.523438 4.71875 11.921875 4.335938 Z M 11.921875 4.335938 "/>
<path style=" stroke:none;fill-rule:nonzero;fill:rgb(41.960784%,24.705882%,16.470588%);fill-opacity:1;" d="M 14.886719 2.910156 C 15.007812 2.867188 15.109375 2.828125 15.210938 2.785156 C 15.210938 2.796875 15.214844 2.808594 15.21875 2.820312 C 14.941406 2.992188 14.660156 3.167969 14.378906 3.363281 C 14.320312 3.375 14.269531 3.367188 14.214844 3.359375 C 14.203125 3.328125 14.191406 3.300781 14.179688 3.269531 C 14.40625 3.152344 14.636719 3.03125 14.886719 2.910156 Z M 14.886719 2.910156 "/>
<path style=" stroke:none;fill-rule:nonzero;fill:rgb(33.333333%,19.215686%,12.941176%);fill-opacity:1;" d="M 16.753906 3.148438 C 16.882812 3.292969 17.015625 3.433594 17.148438 3.578125 C 17.117188 3.601562 17.085938 3.628906 17.054688 3.652344 C 16.953125 3.5 16.855469 3.34375 16.753906 3.167969 C 16.753906 3.148438 16.753906 3.148438 16.753906 3.148438 Z M 16.753906 3.148438 "/>
<path style=" stroke:none;fill-rule:nonzero;fill:rgb(41.960784%,24.705882%,16.470588%);fill-opacity:1;" d="M 12.394531 3.921875 C 12.367188 3.957031 12.320312 4 12.253906 4.039062 C 12.28125 4 12.328125 3.960938 12.394531 3.921875 Z M 12.394531 3.921875 "/>
<path style=" stroke:none;fill-rule:nonzero;fill:rgb(33.72549%,19.215686%,12.941176%);fill-opacity:1;" d="M 11.054688 6.539062 C 11.03125 6.5625 10.988281 6.570312 10.949219 6.582031 C 10.949219 6.535156 10.949219 6.484375 10.972656 6.425781 C 11.003906 6.453125 11.023438 6.488281 11.054688 6.539062 Z M 11.054688 6.539062 "/>
<path style=" stroke:none;fill-rule:nonzero;fill:rgb(32.941176%,19.607843%,13.72549%);fill-opacity:1;" d="M 10.988281 4.039062 C 11.027344 4.019531 11.0625 4 11.101562 3.980469 C 11.105469 3.996094 11.109375 4.007812 11.117188 4.023438 C 11.085938 4.027344 11.054688 4.035156 11.007812 4.039062 C 10.992188 4.039062 10.988281 4.039062 10.988281 4.039062 Z M 10.988281 4.039062 "/>
<path style=" stroke:none;fill-rule:nonzero;fill:rgb(41.960784%,24.705882%,16.470588%);fill-opacity:1;" d="M 13.171875 5.351562 C 13.160156 5.382812 13.132812 5.421875 13.085938 5.464844 C 13.097656 5.433594 13.125 5.394531 13.171875 5.351562 Z M 13.171875 5.351562 "/>
<path style=" stroke:none;fill-rule:nonzero;fill:rgb(41.960784%,24.705882%,16.470588%);fill-opacity:1;" d="M 13.292969 5.121094 C 13.296875 5.160156 13.289062 5.210938 13.261719 5.273438 C 13.253906 5.234375 13.265625 5.183594 13.292969 5.121094 Z M 13.292969 5.121094 "/>
<path style=" stroke:none;fill-rule:nonzero;fill:rgb(42.352941%,25.098039%,18.039216%);fill-opacity:1;" d="M 10.734375 4.101562 C 10.722656 4.117188 10.695312 4.136719 10.644531 4.15625 C 10.65625 4.140625 10.6875 4.121094 10.734375 4.101562 Z M 10.734375 4.101562 "/>
<path style=" stroke:none;fill-rule:nonzero;fill:rgb(33.72549%,19.215686%,12.941176%);fill-opacity:1;" d="M 15.621094 3.398438 C 15.628906 3.410156 15.625 3.421875 15.621094 3.429688 C 15.621094 3.421875 15.617188 3.410156 15.621094 3.398438 Z M 15.621094 3.398438 "/>
<path style=" stroke:none;fill-rule:nonzero;fill:rgb(41.960784%,24.705882%,16.470588%);fill-opacity:1;" d="M 12.578125 3.800781 C 12.566406 3.820312 12.539062 3.839844 12.492188 3.859375 C 12.503906 3.839844 12.53125 3.824219 12.578125 3.800781 Z M 12.578125 3.800781 "/>
<path style=" stroke:none;fill-rule:nonzero;fill:rgb(33.333333%,19.215686%,12.941176%);fill-opacity:1;" d="M 17.128906 3.816406 C 17.132812 3.800781 17.140625 3.792969 17.148438 3.785156 C 17.144531 3.796875 17.140625 3.8125 17.128906 3.816406 Z M 17.128906 3.816406 "/>
<path style=" stroke:none;fill-rule:nonzero;fill:rgb(41.960784%,24.705882%,16.470588%);fill-opacity:1;" d="M 15.191406 3.503906 C 15.179688 3.523438 15.152344 3.542969 15.105469 3.5625 C 15.117188 3.542969 15.144531 3.527344 15.191406 3.503906 Z M 15.191406 3.503906 "/>
<path style=" stroke:none;fill-rule:nonzero;fill:rgb(33.333333%,19.215686%,12.941176%);fill-opacity:1;" d="M 16.753906 3.148438 C 16.738281 3.128906 16.722656 3.105469 16.707031 3.085938 C 16.714844 3.082031 16.722656 3.074219 16.730469 3.070312 C 16.738281 3.085938 16.746094 3.101562 16.753906 3.132812 C 16.753906 3.148438 16.753906 3.148438 16.753906 3.148438 Z M 16.753906 3.148438 "/>
<path style=" stroke:none;fill-rule:nonzero;fill:rgb(38.039216%,23.137255%,27.058824%);fill-opacity:1;" d="M 10.496094 5.167969 C 10.484375 5.1875 10.457031 5.203125 10.410156 5.226562 C 10.421875 5.207031 10.449219 5.1875 10.496094 5.167969 Z M 10.496094 5.167969 "/>
<path style=" stroke:none;fill-rule:nonzero;fill:rgb(36.862745%,21.176471%,14.117647%);fill-opacity:1;" d="M 15.328125 2.078125 C 15.335938 2.085938 15.339844 2.097656 15.347656 2.105469 C 15.34375 2.101562 15.339844 2.097656 15.328125 2.085938 C 15.328125 2.078125 15.328125 2.078125 15.328125 2.078125 Z M 15.328125 2.078125 "/>
<path style=" stroke:none;fill-rule:nonzero;fill:rgb(41.960784%,24.705882%,16.470588%);fill-opacity:1;" d="M 14.078125 3.445312 C 14.074219 3.449219 14.066406 3.449219 14.070312 3.449219 C 14.078125 3.445312 14.078125 3.445312 14.078125 3.445312 Z M 14.078125 3.445312 "/>
<path style=" stroke:none;fill-rule:nonzero;fill:rgb(41.960784%,24.705882%,16.470588%);fill-opacity:1;" d="M 13.234375 5.292969 C 13.234375 5.300781 13.226562 5.316406 13.199219 5.339844 C 13.199219 5.332031 13.207031 5.3125 13.234375 5.292969 Z M 13.234375 5.292969 "/>
<path style=" stroke:none;fill-rule:nonzero;fill:rgb(41.960784%,24.705882%,16.470588%);fill-opacity:1;" d="M 12.460938 3.867188 C 12.464844 3.875 12.453125 3.890625 12.425781 3.914062 C 12.425781 3.902344 12.4375 3.886719 12.460938 3.867188 Z M 12.460938 3.867188 "/>
<path style=" stroke:none;fill-rule:nonzero;fill:rgb(38.039216%,23.137255%,27.058824%);fill-opacity:1;" d="M 10.558594 5.109375 C 10.5625 5.121094 10.550781 5.136719 10.527344 5.160156 C 10.523438 5.148438 10.535156 5.132812 10.558594 5.109375 Z M 10.558594 5.109375 "/>
<path style=" stroke:none;fill-rule:nonzero;fill:rgb(42.352941%,25.098039%,18.039216%);fill-opacity:1;" d="M 10.558594 4.164062 C 10.570312 4.179688 10.558594 4.195312 10.527344 4.210938 C 10.519531 4.195312 10.53125 4.179688 10.558594 4.164062 Z M 10.558594 4.164062 "/>
<path style=" stroke:none;fill-rule:nonzero;fill:rgb(33.333333%,19.215686%,12.941176%);fill-opacity:1;" d="M 11.523438 4.515625 C 11.53125 4.511719 11.535156 4.511719 11.535156 4.511719 C 11.527344 4.515625 11.523438 4.515625 11.523438 4.515625 Z M 11.523438 4.515625 "/>
<path style=" stroke:none;fill-rule:nonzero;fill:rgb(1.568627%,52.941176%,100%);fill-opacity:1;" d="M 8.617188 6.539062 C 8.613281 6.601562 8.609375 6.664062 8.605469 6.746094 C 8.589844 6.875 8.574219 6.980469 8.53125 7.109375 C 8.382812 7.136719 8.269531 7.144531 8.164062 7.148438 C 8.085938 7.847656 8.410156 8.359375 9.046875 8.585938 C 9.199219 8.640625 9.429688 8.636719 9.503906 8.742188 C 9.582031 8.859375 9.515625 9.074219 9.519531 9.246094 C 9.519531 9.261719 9.539062 9.277344 9.554688 9.304688 C 9.800781 9.304688 10.058594 9.304688 10.320312 9.324219 C 10.40625 9.515625 10.46875 9.691406 10.554688 9.855469 C 10.941406 10.644531 11.589844 11.152344 12.371094 11.542969 C 12.851562 12.621094 13.582031 13.503906 14.320312 14.390625 C 14.011719 14.585938 13.714844 14.761719 13.421875 14.945312 C 12.765625 15.367188 12.113281 15.792969 11.4375 16.21875 C 11.335938 16.277344 11.25 16.335938 11.152344 16.394531 C 11.109375 16.414062 11.082031 16.433594 11.039062 16.457031 C 10.96875 16.507812 10.914062 16.550781 10.859375 16.589844 C 10.71875 16.546875 10.578125 16.503906 10.410156 16.441406 C 10.363281 16.40625 10.34375 16.402344 10.324219 16.410156 C 10.324219 16.410156 10.332031 16.414062 10.332031 16.386719 C 10.371094 16.179688 10.226562 15.925781 10.554688 15.863281 C 11.511719 15.683594 11.820312 15.28125 11.828125 14.300781 C 11.832031 13.871094 11.628906 13.582031 11.277344 13.394531 C 11.0625 13.28125 10.824219 13.207031 10.589844 13.132812 C 10.328125 13.050781 10.050781 13.003906 9.796875 12.90625 C 9.699219 12.867188 9.644531 12.726562 9.566406 12.632812 C 9.671875 12.5625 9.769531 12.4375 9.882812 12.425781 C 10.164062 12.394531 10.472656 12.363281 10.582031 12.746094 C 10.589844 12.78125 10.648438 12.824219 10.6875 12.824219 C 11.039062 12.832031 11.390625 12.828125 11.734375 12.828125 C 11.8125 12.132812 11.328125 11.566406 10.617188 11.464844 C 10.507812 11.449219 10.402344 11.414062 10.296875 11.390625 C 10.332031 11.179688 10.355469 11.011719 10.382812 10.835938 C 10.078125 10.855469 9.804688 10.871094 9.515625 10.890625 C 9.535156 11.078125 9.550781 11.25 9.5625 11.421875 C 9.453125 11.457031 9.371094 11.484375 9.289062 11.511719 C 8.464844 11.777344 8.132812 12.277344 8.265625 13.128906 C 8.355469 13.734375 8.824219 13.976562 9.347656 14.132812 C 9.667969 14.226562 9.996094 14.292969 10.3125 14.398438 C 10.484375 14.457031 10.578125 14.597656 10.421875 14.765625 C 10.21875 14.976562 9.511719 14.839844 9.378906 14.582031 C 9.335938 14.5 9.246094 14.390625 9.171875 14.386719 C 8.839844 14.363281 8.507812 14.375 8.1875 14.375 C 8.003906 14.914062 8.417969 15.65625 9.246094 15.832031 C 9.542969 15.894531 9.597656 16.019531 9.558594 16.265625 C 8.988281 16.269531 8.417969 16.273438 7.820312 16.277344 C 7.621094 16.207031 7.449219 16.140625 7.253906 16.039062 C 6.953125 15.464844 6.414062 15.351562 5.894531 15.242188 C 5.910156 15.039062 5.921875 14.871094 5.9375 14.695312 C 5.636719 14.695312 5.386719 14.695312 5.101562 14.695312 C 5.125 14.835938 5.167969 14.949219 5.15625 15.058594 C 5.148438 15.148438 5.082031 15.300781 5.03125 15.304688 C 4.578125 15.347656 4.292969 15.648438 3.972656 15.90625 C 3.949219 15.871094 3.941406 15.855469 3.929688 15.835938 C 3.21875 14.277344 2.960938 12.644531 3.15625 10.9375 C 3.335938 10.953125 3.511719 10.96875 3.714844 11.015625 C 3.675781 12.050781 4.347656 12.386719 5.15625 12.566406 C 5.140625 12.765625 5.128906 12.933594 5.113281 13.105469 C 5.414062 13.105469 5.664062 13.105469 5.941406 13.105469 C 5.925781 12.914062 5.910156 12.742188 5.894531 12.558594 C 5.972656 12.546875 6.027344 12.542969 6.085938 12.53125 C 6.488281 12.453125 6.894531 12.351562 7.140625 12 C 7.613281 11.328125 7.644531 10.203125 6.492188 9.859375 C 6.210938 9.773438 5.925781 9.703125 5.640625 9.625 C 5.679688 9.441406 5.722656 9.261719 5.789062 9.058594 C 5.914062 9.121094 6.070312 9.191406 6.101562 9.296875 C 6.15625 9.476562 6.25 9.507812 6.402344 9.503906 C 6.542969 9.5 6.679688 9.503906 6.816406 9.503906 C 7.417969 9.503906 7.503906 9.355469 7.226562 8.8125 C 7.183594 8.726562 7.121094 8.648438 7.058594 8.570312 C 6.757812 8.210938 6.332031 8.121094 5.890625 8.046875 C 5.910156 7.917969 5.9375 7.804688 5.941406 7.6875 C 5.941406 7.621094 5.90625 7.550781 5.886719 7.484375 C 6.617188 6.933594 7.386719 6.453125 8.292969 6.179688 C 8.421875 6.308594 8.519531 6.425781 8.617188 6.539062 Z M 8.617188 6.539062 "/>
<path style=" stroke:none;fill-rule:nonzero;fill:rgb(15.294118%,71.372549%,100%);fill-opacity:1;" d="M 9.582031 16.273438 C 9.597656 16.019531 9.542969 15.894531 9.246094 15.832031 C 8.417969 15.65625 8.003906 14.914062 8.1875 14.375 C 8.507812 14.375 8.839844 14.363281 9.171875 14.386719 C 9.246094 14.390625 9.335938 14.5 9.378906 14.582031 C 9.511719 14.839844 10.21875 14.976562 10.421875 14.765625 C 10.578125 14.597656 10.484375 14.457031 10.3125 14.398438 C 9.996094 14.292969 9.667969 14.226562 9.347656 14.132812 C 8.824219 13.976562 8.355469 13.734375 8.265625 13.128906 C 8.132812 12.277344 8.464844 11.777344 9.289062 11.511719 C 9.371094 11.484375 9.453125 11.457031 9.5625 11.421875 C 9.550781 11.25 9.535156 11.078125 9.515625 10.890625 C 9.804688 10.871094 10.078125 10.855469 10.382812 10.835938 C 10.355469 11.011719 10.332031 11.179688 10.296875 11.390625 C 10.402344 11.414062 10.507812 11.449219 10.617188 11.464844 C 11.328125 11.566406 11.8125 12.132812 11.734375 12.828125 C 11.390625 12.828125 11.039062 12.832031 10.6875 12.824219 C 10.648438 12.824219 10.589844 12.78125 10.582031 12.746094 C 10.472656 12.363281 10.164062 12.394531 9.882812 12.425781 C 9.769531 12.4375 9.671875 12.5625 9.566406 12.632812 C 9.644531 12.726562 9.699219 12.867188 9.796875 12.90625 C 10.050781 13.003906 10.328125 13.050781 10.589844 13.132812 C 10.824219 13.207031 11.0625 13.28125 11.277344 13.394531 C 11.628906 13.582031 11.832031 13.871094 11.828125 14.300781 C 11.820312 15.28125 11.511719 15.683594 10.554688 15.863281 C 10.226562 15.925781 10.371094 16.179688 10.328125 16.386719 C 10.085938 16.367188 9.84375 16.324219 9.582031 16.273438 Z M 9.582031 16.273438 "/>
<path style=" stroke:none;fill-rule:nonzero;fill:rgb(26.666667%,90.588235%,60%);fill-opacity:1;" d="M 7.769531 19.003906 C 7.214844 18.460938 7.503906 17.519531 8.285156 17.292969 C 8.390625 17.261719 8.492188 17.230469 8.609375 17.183594 C 8.679688 17.171875 8.734375 17.183594 8.800781 17.191406 C 8.453125 17.800781 8.117188 18.394531 7.769531 19.003906 Z M 7.769531 19.003906 "/>
<path style=" stroke:none;fill-rule:nonzero;fill:rgb(16.078431%,86.666667%,34.509804%);fill-opacity:1;" d="M 10.871094 16.605469 C 10.914062 16.550781 10.96875 16.507812 11.058594 16.460938 C 11.117188 16.460938 11.144531 16.460938 11.183594 16.476562 C 11.9375 16.710938 12.328125 17.246094 12.527344 17.957031 C 12.464844 17.984375 12.402344 18.011719 12.320312 18.046875 C 12.175781 17.761719 12.046875 17.472656 11.902344 17.179688 C 11.546875 16.988281 11.214844 16.804688 10.871094 16.605469 Z M 10.871094 16.605469 "/>
<path style=" stroke:none;fill-rule:nonzero;fill:rgb(15.294118%,71.372549%,100%);fill-opacity:1;" d="M 10.328125 16.421875 C 10.34375 16.402344 10.363281 16.40625 10.386719 16.433594 C 10.375 16.441406 10.355469 16.4375 10.328125 16.421875 Z M 10.328125 16.421875 "/>
<path style=" stroke:none;fill-rule:nonzero;fill:rgb(15.294118%,71.764706%,100%);fill-opacity:1;" d="M 5.625 9.632812 C 5.925781 9.703125 6.210938 9.773438 6.492188 9.859375 C 7.644531 10.203125 7.613281 11.328125 7.140625 12 C 6.894531 12.351562 6.488281 12.453125 6.085938 12.53125 C 6.027344 12.542969 5.972656 12.546875 5.894531 12.558594 C 5.910156 12.742188 5.925781 12.914062 5.941406 13.105469 C 5.664062 13.105469 5.414062 13.105469 5.113281 13.105469 C 5.128906 12.933594 5.140625 12.765625 5.15625 12.566406 C 4.347656 12.386719 3.675781 12.050781 3.742188 11.019531 C 3.769531 10.988281 3.796875 10.980469 3.859375 10.972656 C 3.945312 10.957031 3.996094 10.941406 4.042969 10.929688 C 4.042969 10.929688 4.070312 10.933594 4.101562 10.953125 C 4.390625 10.984375 4.644531 10.992188 4.890625 11.003906 C 5.039062 11.480469 5.421875 11.660156 5.882812 11.46875 C 5.957031 11.4375 6.042969 11.339844 6.046875 11.269531 C 6.050781 11.195312 5.980469 11.078125 5.914062 11.046875 C 5.734375 10.96875 5.539062 10.933594 5.355469 10.867188 C 5.070312 10.769531 4.789062 10.664062 4.507812 10.5625 C 4.632812 10.28125 4.78125 10.058594 5.132812 10 C 5.304688 9.96875 5.449219 9.769531 5.625 9.632812 Z M 5.625 9.632812 "/>
<path style=" stroke:none;fill-rule:nonzero;fill:rgb(12.941176%,90.588235%,32.54902%);fill-opacity:1;" d="M 3.136719 10.933594 C 2.960938 12.644531 3.21875 14.277344 3.929688 15.835938 C 3.941406 15.855469 3.949219 15.871094 3.976562 15.925781 C 4.308594 16.480469 4.621094 16.996094 4.9375 17.511719 C 4.914062 17.660156 4.894531 17.804688 4.871094 17.976562 C 4.738281 17.894531 4.578125 17.808594 4.480469 17.679688 C 3.566406 16.4375 2.988281 15.046875 2.746094 13.527344 C 2.609375 12.648438 2.546875 11.753906 2.730469 10.84375 C 2.757812 10.820312 2.785156 10.824219 2.84375 10.839844 C 2.910156 10.859375 2.941406 10.867188 2.972656 10.871094 C 3.023438 10.890625 3.070312 10.90625 3.136719 10.933594 Z M 3.136719 10.933594 "/>
<path style=" stroke:none;fill-rule:nonzero;fill:rgb(15.294118%,71.372549%,100%);fill-opacity:1;" d="M 5.871094 7.488281 C 5.90625 7.550781 5.941406 7.621094 5.941406 7.6875 C 5.9375 7.804688 5.910156 7.917969 5.890625 8.046875 C 6.332031 8.121094 6.757812 8.210938 7.058594 8.570312 C 7.121094 8.648438 7.183594 8.726562 7.226562 8.8125 C 7.503906 9.355469 7.417969 9.503906 6.816406 9.503906 C 6.679688 9.503906 6.542969 9.5 6.402344 9.503906 C 6.25 9.507812 6.15625 9.476562 6.101562 9.296875 C 6.070312 9.191406 5.914062 9.121094 5.792969 9.035156 C 5.730469 8.597656 5.683594 8.160156 5.65625 7.691406 C 5.703125 7.617188 5.738281 7.578125 5.773438 7.539062 C 5.800781 7.523438 5.828125 7.507812 5.871094 7.488281 Z M 5.871094 7.488281 "/>
<path style=" stroke:none;fill-rule:nonzero;fill:rgb(1.960784%,53.72549%,100%);fill-opacity:1;" d="M 4.492188 10.570312 C 4.789062 10.664062 5.070312 10.769531 5.355469 10.867188 C 5.539062 10.933594 5.734375 10.96875 5.914062 11.046875 C 5.980469 11.078125 6.050781 11.195312 6.046875 11.269531 C 6.042969 11.339844 5.957031 11.4375 5.882812 11.46875 C 5.421875 11.660156 5.039062 11.480469 4.890625 11.003906 C 4.644531 10.992188 4.390625 10.984375 4.117188 10.957031 C 4.222656 10.820312 4.347656 10.699219 4.492188 10.570312 Z M 4.492188 10.570312 "/>
<path style=" stroke:none;fill-rule:nonzero;fill:rgb(15.294118%,86.666667%,33.72549%);fill-opacity:1;" d="M 5.769531 7.515625 C 5.738281 7.578125 5.703125 7.617188 5.652344 7.667969 C 5.492188 6.84375 4.953125 6.390625 4.167969 6.140625 C 4.191406 6.089844 4.230469 6.054688 4.300781 6.003906 C 4.449219 6.015625 4.570312 6.042969 4.6875 6.066406 C 5.273438 6.371094 5.71875 6.777344 5.769531 7.515625 Z M 5.769531 7.515625 "/>
<path style=" stroke:none;fill-rule:nonzero;fill:rgb(87.058824%,66.27451%,47.058824%);fill-opacity:1;" d="M 4.03125 10.910156 C 3.996094 10.941406 3.945312 10.957031 3.882812 10.96875 C 3.726562 10.710938 3.589844 10.460938 3.453125 10.210938 C 3.226562 9.800781 3.382812 9.460938 3.671875 9.125 C 3.292969 9.824219 3.542969 10.382812 4.03125 10.910156 Z M 4.03125 10.910156 "/>
<path style=" stroke:none;fill-rule:nonzero;fill:rgb(87.058824%,66.27451%,47.058824%);fill-opacity:1;" d="M 2.785156 10.640625 C 2.636719 10.398438 2.429688 10.171875 2.363281 9.910156 C 2.316406 9.726562 2.457031 9.496094 2.535156 9.277344 C 2.554688 9.265625 2.558594 9.273438 2.558594 9.273438 C 2.546875 9.367188 2.554688 9.472656 2.519531 9.558594 C 2.417969 9.792969 2.488281 9.988281 2.609375 10.1875 C 2.6875 10.3125 2.738281 10.449219 2.796875 10.605469 C 2.792969 10.632812 2.785156 10.640625 2.785156 10.640625 Z M 2.785156 10.640625 "/>
<path style=" stroke:none;fill-rule:nonzero;fill:rgb(87.843137%,67.45098%,48.627451%);fill-opacity:1;" d="M 2.011719 10.320312 C 1.980469 10.332031 1.949219 10.324219 1.902344 10.285156 C 1.871094 10.242188 1.855469 10.230469 1.835938 10.21875 C 1.835938 10.21875 1.839844 10.21875 1.839844 10.222656 C 1.753906 9.988281 1.640625 9.757812 1.59375 9.515625 C 1.566406 9.390625 1.648438 9.242188 1.703125 9.097656 C 1.722656 9.089844 1.726562 9.09375 1.726562 9.09375 C 1.597656 9.394531 1.792969 9.640625 1.871094 9.910156 C 1.90625 10.039062 1.964844 10.167969 2.011719 10.320312 Z M 2.011719 10.320312 "/>
<path style=" stroke:none;fill-rule:nonzero;fill:rgb(87.843137%,67.45098%,48.627451%);fill-opacity:1;" d="M 5.308594 9.339844 C 5.203125 9.503906 5.105469 9.648438 5.011719 9.792969 C 4.988281 9.78125 4.96875 9.773438 4.945312 9.761719 C 5.070312 9.476562 5.191406 9.191406 5.3125 8.90625 C 5.335938 8.910156 5.359375 8.910156 5.382812 8.914062 C 5.359375 9.046875 5.339844 9.183594 5.308594 9.339844 Z M 5.308594 9.339844 "/>
<path style=" stroke:none;fill-rule:nonzero;fill:rgb(87.058824%,66.27451%,47.058824%);fill-opacity:1;" d="M 2.972656 10.851562 C 2.941406 10.867188 2.910156 10.859375 2.863281 10.84375 C 2.832031 10.78125 2.8125 10.730469 2.789062 10.660156 C 2.785156 10.640625 2.792969 10.632812 2.796875 10.628906 C 2.855469 10.695312 2.914062 10.761719 2.972656 10.851562 Z M 2.972656 10.851562 "/>
<path style=" stroke:none;fill-rule:nonzero;fill:rgb(87.058824%,66.27451%,47.058824%);fill-opacity:1;" d="M 2.550781 9.265625 C 2.558594 9.238281 2.570312 9.210938 2.582031 9.183594 C 2.582031 9.207031 2.582031 9.230469 2.574219 9.261719 C 2.558594 9.273438 2.554688 9.265625 2.550781 9.265625 Z M 2.550781 9.265625 "/>
<path style=" stroke:none;fill-rule:nonzero;fill:rgb(87.843137%,67.45098%,48.627451%);fill-opacity:1;" d="M 1.722656 9.085938 C 1.730469 9.085938 1.738281 9.085938 1.738281 9.089844 C 1.726562 9.09375 1.722656 9.089844 1.722656 9.085938 Z M 1.722656 9.085938 "/>
<path style=" stroke:none;fill-rule:nonzero;fill:rgb(87.843137%,67.45098%,48.627451%);fill-opacity:1;" d="M 4.894531 9.894531 C 4.894531 9.886719 4.90625 9.886719 4.90625 9.886719 C 4.90625 9.886719 4.898438 9.898438 4.894531 9.894531 Z M 4.894531 9.894531 "/>
<path style=" stroke:none;fill-rule:nonzero;fill:rgb(12.941176%,90.196078%,32.156863%);fill-opacity:1;" d="M 11.039062 2.722656 C 10.753906 2.929688 10.453125 3.121094 10.109375 3.320312 C 9.082031 3.542969 8.160156 3.917969 7.292969 4.472656 C 7.105469 4.609375 6.9375 4.738281 6.769531 4.871094 C 6.773438 4.871094 6.773438 4.867188 6.753906 4.867188 C 6.707031 4.882812 6.679688 4.90625 6.632812 4.933594 C 6.253906 5.089844 5.890625 5.230469 5.53125 5.375 C 5.722656 5.164062 5.890625 4.921875 6.109375 4.746094 C 7.226562 3.851562 8.472656 3.210938 9.875 2.902344 C 10.253906 2.816406 10.640625 2.769531 11.039062 2.722656 Z M 11.039062 2.722656 "/>
<path style=" stroke:none;fill-rule:nonzero;fill:rgb(29.019608%,12.941176%,78.823529%);fill-opacity:1;" d="M 5.515625 5.390625 C 5.890625 5.230469 6.253906 5.089844 6.648438 4.9375 C 6.714844 4.90625 6.746094 4.886719 6.773438 4.867188 C 6.773438 4.867188 6.773438 4.871094 6.792969 4.871094 C 6.9375 4.832031 7.0625 4.792969 7.210938 4.75 C 7.773438 4.65625 8.316406 4.5625 8.855469 4.464844 C 8.175781 4.691406 7.484375 4.898438 6.8125 5.152344 C 6.105469 5.421875 5.414062 5.738281 4.699219 6.046875 C 4.570312 6.042969 4.449219 6.015625 4.308594 5.988281 C 4.691406 5.789062 5.097656 5.59375 5.515625 5.390625 Z M 5.515625 5.390625 "/>
<path style=" stroke:none;fill-rule:nonzero;fill:rgb(14.901961%,71.372549%,99.215686%);fill-opacity:1;" d="M 4.953125 17.5 C 4.621094 16.996094 4.308594 16.480469 3.988281 15.941406 C 4.292969 15.648438 4.578125 15.347656 5.03125 15.304688 C 5.082031 15.300781 5.148438 15.148438 5.15625 15.058594 C 5.167969 14.949219 5.125 14.835938 5.101562 14.695312 C 5.386719 14.695312 5.636719 14.695312 5.9375 14.695312 C 5.921875 14.871094 5.910156 15.039062 5.894531 15.242188 C 6.414062 15.351562 6.953125 15.464844 7.238281 16.027344 C 6.777344 15.890625 6.304688 15.742188 5.84375 15.574219 C 5.613281 15.488281 5.496094 15.492188 5.433594 15.773438 C 5.300781 16.351562 5.128906 16.917969 4.953125 17.5 Z M 4.953125 17.5 "/>
<path style=" stroke:none;fill-rule:nonzero;fill:rgb(25.490196%,90.588235%,59.215686%);fill-opacity:1;" d="M 6.246094 17.007812 C 6.058594 17.136719 5.886719 17.140625 5.75 16.984375 C 5.574219 16.785156 5.605469 16.535156 5.75 16.355469 C 5.839844 16.242188 6.042969 16.175781 6.199219 16.171875 C 6.394531 16.167969 6.515625 16.457031 6.4375 16.691406 C 6.402344 16.800781 6.324219 16.894531 6.246094 17.007812 Z M 6.246094 17.007812 "/>
<path style=" stroke:none;fill-rule:nonzero;fill:rgb(25.490196%,90.588235%,59.215686%);fill-opacity:1;" d="M 5.882812 18.835938 C 5.898438 18.953125 5.917969 19.050781 5.902344 19.140625 C 5.859375 19.386719 5.675781 19.542969 5.449219 19.507812 C 5.320312 19.484375 5.171875 19.296875 5.125 19.152344 C 5.054688 18.925781 5.171875 18.710938 5.390625 18.621094 C 5.585938 18.535156 5.777344 18.589844 5.882812 18.835938 Z M 5.882812 18.835938 "/>
<path style=" stroke:none;fill-rule:nonzero;fill:rgb(97.254902%,83.921569%,69.803922%);fill-opacity:1;" d="M 1.84375 10.234375 C 1.855469 10.230469 1.871094 10.242188 1.894531 10.269531 C 1.882812 10.269531 1.863281 10.261719 1.84375 10.234375 Z M 1.84375 10.234375 "/>
<path style=" stroke:none;fill-rule:nonzero;fill:rgb(25.490196%,90.588235%,59.215686%);fill-opacity:1;" d="M 6.148438 20.730469 C 6.265625 20.515625 6.464844 20.414062 6.621094 20.535156 C 6.761719 20.640625 6.875 20.875 6.867188 21.046875 C 6.859375 21.179688 6.671875 21.367188 6.527344 21.421875 C 6.320312 21.5 6.171875 21.335938 6.128906 21.128906 C 6.105469 21.007812 6.132812 20.878906 6.148438 20.730469 Z M 6.148438 20.730469 "/>
<path style=" stroke:none;fill-rule:nonzero;fill:rgb(29.803922%,3.137255%,71.764706%);fill-opacity:1;" d="M 12.550781 17.949219 C 12.328125 17.246094 11.9375 16.710938 11.183594 16.457031 C 11.167969 16.417969 11.167969 16.40625 11.167969 16.394531 C 11.25 16.335938 11.335938 16.277344 11.460938 16.21875 C 11.621094 16.171875 11.746094 16.132812 11.859375 16.078125 C 13.078125 15.492188 14.292969 14.898438 15.511719 14.316406 C 15.757812 14.199219 16.015625 14.113281 16.277344 14.007812 C 16.164062 13.699219 15.890625 13.738281 15.679688 13.640625 C 15.679688 13.585938 15.679688 13.558594 15.691406 13.511719 C 15.777344 13.355469 15.851562 13.210938 15.921875 13.066406 C 15.917969 13.066406 15.917969 13.070312 15.9375 13.074219 C 15.960938 13.050781 15.96875 13.03125 15.996094 13 C 16.082031 12.820312 16.152344 12.648438 16.242188 12.476562 C 16.308594 12.398438 16.351562 12.320312 16.414062 12.230469 C 16.46875 12.171875 16.503906 12.125 16.535156 12.074219 C 16.949219 11.40625 17.300781 10.6875 17.910156 10.160156 C 18.292969 9.832031 18.730469 9.589844 19.234375 9.808594 C 19.75 10.027344 19.929688 10.488281 19.964844 11.03125 C 20.027344 11.980469 19.613281 12.773438 19.191406 13.570312 C 19.015625 13.90625 18.855469 14.246094 18.6875 14.582031 C 18.6875 14.582031 18.675781 14.582031 18.65625 14.578125 C 18.625 14.589844 18.609375 14.609375 18.597656 14.625 C 18.363281 14.964844 18.128906 15.300781 17.878906 15.675781 C 17.734375 15.839844 17.621094 16.019531 17.464844 16.082031 C 16.664062 16.402344 15.851562 16.6875 15.046875 16.996094 C 14.738281 17.113281 14.441406 17.261719 14.140625 17.394531 C 13.808594 17.503906 13.476562 17.613281 13.136719 17.746094 C 13.125 17.761719 13.128906 17.757812 13.128906 17.757812 C 12.941406 17.820312 12.757812 17.878906 12.550781 17.949219 Z M 12.550781 17.949219 "/>
<path style=" stroke:none;fill-rule:nonzero;fill:rgb(21.176471%,0.784314%,54.901961%);fill-opacity:1;" d="M 14.140625 17.414062 C 14.441406 17.261719 14.738281 17.113281 15.046875 16.996094 C 15.851562 16.6875 16.664062 16.402344 17.464844 16.082031 C 17.621094 16.019531 17.734375 15.839844 17.875 15.699219 C 18.113281 15.652344 18.347656 15.648438 18.5625 15.589844 C 19.316406 15.386719 19.953125 14.984375 20.492188 14.425781 C 20.558594 14.355469 20.613281 14.277344 20.710938 14.230469 C 20.175781 16.410156 18.992188 18.144531 17.136719 19.414062 C 17.425781 18.257812 17.925781 17.214844 18.699219 16.3125 C 18.742188 16.261719 18.75 16.171875 18.789062 16.097656 C 18.816406 16.089844 18.835938 16.082031 18.851562 16.078125 C 18.84375 16.070312 18.835938 16.054688 18.835938 16.054688 C 18.8125 16.070312 18.792969 16.082031 18.75 16.101562 C 18.117188 16.3125 17.683594 16.75 17.285156 17.261719 C 16.933594 17.492188 16.601562 17.710938 16.25 17.9375 C 15.625 18.171875 15.335938 18.589844 15.449219 19.25 C 15.46875 19.347656 15.453125 19.449219 15.449219 19.570312 C 15.433594 19.855469 15.421875 20.109375 15.410156 20.367188 C 15.199219 20.445312 14.988281 20.523438 14.753906 20.609375 C 14.742188 20.25 14.769531 19.886719 14.753906 19.527344 C 14.734375 18.949219 14.691406 18.371094 14.644531 17.796875 C 14.625 17.511719 14.46875 17.40625 14.167969 17.507812 C 14.144531 17.484375 14.140625 17.457031 14.140625 17.414062 Z M 14.140625 17.414062 "/>
<path style=" stroke:none;fill-rule:nonzero;fill:rgb(21.176471%,0.784314%,55.294118%);fill-opacity:1;" d="M 18.707031 14.582031 C 18.855469 14.246094 19.015625 13.90625 19.191406 13.570312 C 19.613281 12.773438 20.027344 11.980469 19.964844 11.03125 C 19.929688 10.488281 19.75 10.027344 19.234375 9.808594 C 18.730469 9.589844 18.292969 9.832031 17.910156 10.160156 C 17.300781 10.6875 16.949219 11.40625 16.535156 12.074219 C 16.503906 12.125 16.46875 12.171875 16.398438 12.21875 C 15.980469 11.640625 15.46875 11.316406 14.746094 11.402344 C 14.738281 11.402344 14.730469 11.398438 14.730469 11.378906 C 15.464844 11.039062 16.101562 10.605469 16.65625 10.042969 C 17.109375 9.582031 17.40625 9.054688 17.347656 8.382812 C 17.730469 8.371094 18.082031 8.269531 18.398438 8 C 18.625 8.226562 18.839844 8.46875 19.070312 8.738281 C 19.941406 9.90625 20.550781 11.164062 20.957031 12.519531 C 20.449219 13.460938 19.746094 14.191406 18.707031 14.582031 Z M 18.707031 14.582031 "/>
<path style=" stroke:none;fill-rule:nonzero;fill:rgb(1.568627%,52.941176%,99.215686%);fill-opacity:1;" d="M 20.976562 12.515625 C 20.550781 11.164062 19.941406 9.90625 19.085938 8.753906 C 19.441406 8.621094 19.804688 8.503906 20.1875 8.375 C 20.644531 9.238281 20.878906 10.167969 20.96875 11.132812 C 21.007812 11.589844 20.988281 12.054688 20.976562 12.515625 Z M 20.976562 12.515625 "/>
<path style=" stroke:none;fill-rule:nonzero;fill:rgb(1.568627%,52.54902%,99.607843%);fill-opacity:1;" d="M 15.429688 20.359375 C 15.421875 20.109375 15.433594 19.855469 15.472656 19.570312 C 15.886719 19.398438 16.121094 19.105469 16.203125 18.710938 C 16.257812 18.457031 16.25 18.191406 16.269531 17.929688 C 16.601562 17.710938 16.933594 17.492188 17.28125 17.289062 C 17.027344 18.144531 16.761719 18.992188 16.496094 19.835938 C 16.144531 20.007812 15.796875 20.183594 15.429688 20.359375 Z M 15.429688 20.359375 "/>
<path style=" stroke:none;fill-rule:nonzero;fill:rgb(22.745098%,0.784314%,67.843137%);fill-opacity:1;" d="M 16.519531 19.832031 C 16.761719 18.992188 17.027344 18.144531 17.300781 17.273438 C 17.683594 16.75 18.117188 16.3125 18.75 16.101562 C 18.773438 16.097656 18.773438 16.097656 18.773438 16.097656 C 18.75 16.171875 18.742188 16.261719 18.699219 16.3125 C 17.925781 17.214844 17.425781 18.257812 17.117188 19.417969 C 16.921875 19.570312 16.730469 19.699219 16.519531 19.832031 Z M 16.519531 19.832031 "/>
<path style=" stroke:none;fill-rule:nonzero;fill:rgb(21.176471%,0.784314%,55.294118%);fill-opacity:1;" d="M 18.613281 14.621094 C 18.609375 14.609375 18.625 14.589844 18.652344 14.574219 C 18.65625 14.589844 18.644531 14.605469 18.613281 14.621094 Z M 18.613281 14.621094 "/>
<path style=" stroke:none;fill-rule:nonzero;fill:rgb(25.490196%,90.588235%,59.215686%);fill-opacity:1;" d="M 13.125 17.761719 C 13.628906 17.757812 13.851562 18.015625 13.671875 18.398438 C 13.558594 18.628906 13.363281 18.71875 13.136719 18.636719 C 12.910156 18.554688 12.867188 18.335938 12.925781 18.121094 C 12.960938 18.003906 13.046875 17.90625 13.121094 17.777344 C 13.128906 17.757812 13.125 17.761719 13.125 17.761719 Z M 13.125 17.761719 "/>
<path style=" stroke:none;fill-rule:nonzero;fill:rgb(25.490196%,90.588235%,59.215686%);fill-opacity:1;" d="M 12.496094 20.996094 C 12.363281 20.660156 12.402344 20.386719 12.628906 20.269531 C 12.75 20.207031 12.96875 20.1875 13.058594 20.257812 C 13.261719 20.414062 13.25 20.679688 13.128906 20.875 C 13.054688 20.996094 12.863281 21.054688 12.714844 21.113281 C 12.664062 21.132812 12.578125 21.050781 12.496094 20.996094 Z M 12.496094 20.996094 "/>
<path style=" stroke:none;fill-rule:nonzero;fill:rgb(25.490196%,90.588235%,59.215686%);fill-opacity:1;" d="M 14.140625 18.097656 C 14.425781 18.375 14.394531 18.664062 14.039062 18.890625 C 14.058594 18.636719 14.101562 18.378906 14.140625 18.097656 Z M 14.140625 18.097656 "/>
<path style=" stroke:none;fill-rule:nonzero;fill:rgb(25.490196%,90.588235%,59.215686%);fill-opacity:1;" d="M 14.324219 20.792969 C 14.300781 20.980469 14.3125 21.167969 14.234375 21.304688 C 14.125 21.488281 13.925781 21.503906 13.746094 21.375 C 13.492188 21.191406 13.503906 20.734375 13.761719 20.554688 C 13.964844 20.410156 14.15625 20.480469 14.324219 20.792969 Z M 14.324219 20.792969 "/>
<path style=" stroke:none;fill-rule:nonzero;fill:rgb(27.843137%,1.960784%,60.392157%);fill-opacity:1;" d="M 10.175781 7.523438 C 10.902344 7.105469 11.566406 7.210938 12.199219 7.738281 C 12.558594 8.035156 12.570312 8.027344 12.949219 7.730469 C 13.445312 7.34375 13.972656 6.996094 14.628906 6.996094 C 15.003906 6.996094 15.386719 7.082031 15.761719 7.15625 C 16.261719 7.257812 16.753906 7.316406 17.25 7.140625 C 17.25 7.273438 17.25 7.417969 17.226562 7.589844 C 17.171875 7.652344 17.140625 7.683594 17.085938 7.71875 C 16.742188 7.929688 16.425781 8.148438 16.085938 8.332031 C 15.136719 8.835938 14.164062 9.003906 13.140625 8.53125 C 12.980469 8.457031 12.777344 8.476562 12.578125 8.453125 C 12.535156 8.46875 12.503906 8.488281 12.453125 8.507812 C 12.179688 8.703125 11.917969 8.847656 11.578125 8.859375 C 10.984375 8.878906 10.542969 8.609375 10.15625 8.171875 C 10.136719 8.046875 10.121094 7.941406 10.113281 7.832031 C 10.121094 7.828125 10.128906 7.8125 10.128906 7.8125 C 10.128906 7.8125 10.117188 7.796875 10.125 7.777344 C 10.132812 7.726562 10.136719 7.699219 10.144531 7.652344 C 10.160156 7.597656 10.167969 7.558594 10.175781 7.523438 M 14.003906 7.929688 C 13.882812 8.109375 14.03125 8.132812 14.144531 8.152344 C 14.527344 8.21875 14.882812 8.136719 15.222656 7.941406 C 14.898438 7.574219 14.433594 7.5625 14.003906 7.929688 M 11.5 8.40625 C 11.566406 8.34375 11.636719 8.277344 11.703125 8.214844 C 11.445312 7.832031 11.011719 7.792969 10.730469 8.125 C 10.941406 8.296875 11.144531 8.488281 11.5 8.40625 Z M 11.5 8.40625 "/>
<path style=" stroke:none;fill-rule:nonzero;fill:rgb(95.294118%,78.823529%,69.411765%);fill-opacity:1;" d="M 17.105469 7.714844 C 17.140625 7.683594 17.171875 7.652344 17.222656 7.613281 C 17.273438 7.847656 17.3125 8.089844 17.347656 8.355469 C 17.40625 9.054688 17.109375 9.582031 16.65625 10.042969 C 16.101562 10.605469 15.464844 11.039062 14.710938 11.382812 C 14.546875 11.453125 14.414062 11.503906 14.257812 11.5625 C 14.105469 11.597656 13.972656 11.625 13.847656 11.628906 C 13.894531 11.578125 13.933594 11.539062 13.980469 11.511719 C 14.535156 11.195312 15.144531 10.945312 15.632812 10.550781 C 16.515625 9.832031 17.285156 9.007812 17.105469 7.714844 Z M 17.105469 7.714844 "/>
<path style=" stroke:none;fill-rule:nonzero;fill:rgb(22.745098%,15.294118%,10.196078%);fill-opacity:1;" d="M 14.6875 6.382812 C 14.957031 6.488281 15.203125 6.585938 15.453125 6.679688 C 15.445312 6.714844 15.4375 6.746094 15.429688 6.78125 C 14.652344 6.488281 13.941406 6.800781 13.222656 7.011719 C 13.136719 6.761719 13.183594 6.613281 13.453125 6.574219 C 13.855469 6.515625 14.257812 6.441406 14.6875 6.382812 Z M 14.6875 6.382812 "/>
<path style=" stroke:none;fill-rule:nonzero;fill:rgb(2.745098%,53.72549%,99.215686%);fill-opacity:1;" d="M 10.171875 7.496094 C 10.167969 7.558594 10.160156 7.597656 10.121094 7.648438 C 9.75 7.683594 9.425781 7.675781 9.308594 7.253906 C 9.296875 7.21875 9.195312 7.191406 9.132812 7.1875 C 8.988281 7.179688 8.835938 7.1875 8.6875 7.1875 C 8.765625 7.070312 8.84375 6.953125 8.941406 6.828125 C 9.320312 6.902344 9.679688 6.988281 10.066406 7.074219 C 10.117188 7.207031 10.140625 7.339844 10.171875 7.496094 Z M 10.171875 7.496094 "/>
<path style=" stroke:none;fill-rule:nonzero;fill:rgb(25.490196%,17.647059%,12.156863%);fill-opacity:1;" d="M 11.882812 7.121094 C 11.335938 7.003906 10.820312 7.015625 10.308594 7.175781 C 10.769531 6.566406 11.414062 6.765625 12.039062 6.761719 C 12.023438 6.910156 12.199219 7.085938 11.882812 7.121094 Z M 11.882812 7.121094 "/>
<path style=" stroke:none;fill-rule:nonzero;fill:rgb(97.254902%,80.392157%,69.019608%);fill-opacity:1;" d="M 18.472656 7.308594 C 18.386719 7.464844 18.300781 7.621094 18.195312 7.753906 C 18.285156 7.320312 18.257812 7.261719 17.945312 7.191406 C 17.917969 7.1875 17.890625 7.1875 17.847656 7.167969 C 17.851562 7.105469 17.867188 7.054688 17.882812 7.007812 C 17.882812 7.007812 17.882812 7.011719 17.902344 7.007812 C 18.074219 6.933594 18.226562 6.859375 18.378906 6.785156 C 18.410156 6.960938 18.441406 7.132812 18.472656 7.308594 Z M 18.472656 7.308594 "/>
<path style=" stroke:none;fill-rule:nonzero;fill:rgb(1.960784%,53.72549%,100%);fill-opacity:1;" d="M 18.773438 7.09375 C 18.882812 7.105469 19.003906 7.113281 19.085938 7.175781 C 19.175781 7.246094 19.230469 7.359375 19.304688 7.453125 C 19.207031 7.523438 19.117188 7.617188 19.007812 7.65625 C 18.914062 7.6875 18.792969 7.664062 18.65625 7.660156 C 18.675781 7.476562 18.722656 7.296875 18.773438 7.09375 Z M 18.773438 7.09375 "/>
<path style=" stroke:none;fill-rule:nonzero;fill:rgb(87.058824%,66.27451%,47.058824%);fill-opacity:1;" d="M 18.492188 7.292969 C 18.441406 7.132812 18.410156 6.960938 18.378906 6.785156 C 18.226562 6.859375 18.074219 6.933594 17.902344 7.007812 C 17.96875 6.875 18.042969 6.722656 18.152344 6.605469 C 18.214844 6.539062 18.359375 6.476562 18.429688 6.503906 C 18.503906 6.535156 18.578125 6.671875 18.582031 6.761719 C 18.585938 6.933594 18.535156 7.105469 18.492188 7.292969 Z M 18.492188 7.292969 "/>
<path style=" stroke:none;fill-rule:nonzero;fill:rgb(87.843137%,67.45098%,48.627451%);fill-opacity:1;" d="M 17.953125 7.207031 C 18.257812 7.261719 18.285156 7.320312 18.171875 7.753906 C 18.097656 7.824219 18.027344 7.871094 17.957031 7.914062 C 18.042969 7.675781 18.265625 7.457031 17.953125 7.207031 Z M 17.953125 7.207031 "/>
<path style=" stroke:none;fill-rule:nonzero;fill:rgb(87.058824%,66.27451%,47.058824%);fill-opacity:1;" d="M 17.863281 7.015625 C 17.867188 7.054688 17.851562 7.105469 17.828125 7.167969 C 17.828125 7.132812 17.839844 7.078125 17.863281 7.015625 Z M 17.863281 7.015625 "/>
<path style=" stroke:none;fill-rule:nonzero;fill:rgb(1.568627%,53.333333%,99.215686%);fill-opacity:1;" d="M 8.878906 4.460938 C 8.316406 4.5625 7.773438 4.65625 7.21875 4.734375 C 7.238281 4.632812 7.273438 4.550781 7.3125 4.46875 C 8.160156 3.917969 9.082031 3.542969 10.09375 3.328125 C 9.992188 3.449219 9.855469 3.558594 9.738281 3.6875 C 9.667969 3.765625 9.625 3.875 9.5625 3.964844 C 9.476562 4.097656 9.382812 4.226562 9.285156 4.375 C 9.148438 4.414062 9.027344 4.4375 8.878906 4.460938 Z M 8.878906 4.460938 "/>
<path style=" stroke:none;fill-rule:nonzero;fill:rgb(15.686275%,69.803922%,97.647059%);fill-opacity:1;" d="M 8.632812 6.523438 C 8.519531 6.425781 8.421875 6.308594 8.316406 6.175781 C 8.453125 6.109375 8.597656 6.0625 8.765625 6.011719 C 8.742188 6.175781 8.695312 6.34375 8.632812 6.523438 Z M 8.632812 6.523438 "/>
<path style=" stroke:none;fill-rule:nonzero;fill:rgb(35.294118%,21.960784%,14.901961%);fill-opacity:1;" d="M 9.265625 4.753906 C 9.253906 4.761719 9.238281 4.765625 9.226562 4.773438 C 9.230469 4.75 9.230469 4.722656 9.246094 4.691406 C 9.253906 4.683594 9.261719 4.6875 9.265625 4.707031 C 9.265625 4.734375 9.265625 4.746094 9.265625 4.753906 Z M 9.265625 4.753906 "/>
<path style=" stroke:none;fill-rule:nonzero;fill:rgb(20%,12.156863%,7.843137%);fill-opacity:1;" d="M 9.28125 4.75 C 9.265625 4.746094 9.265625 4.734375 9.265625 4.707031 C 9.277344 4.691406 9.289062 4.691406 9.3125 4.695312 C 9.320312 4.714844 9.308594 4.730469 9.28125 4.75 Z M 9.28125 4.75 "/>
<path style=" stroke:none;fill-rule:nonzero;fill:rgb(20%,12.156863%,7.843137%);fill-opacity:1;" d="M 12.402344 2.613281 C 12.390625 2.632812 12.363281 2.652344 12.3125 2.671875 C 12.324219 2.65625 12.355469 2.636719 12.402344 2.613281 Z M 12.402344 2.613281 "/>
<path style=" stroke:none;fill-rule:nonzero;fill:rgb(15.294118%,71.372549%,100%);fill-opacity:1;" d="M 8.679688 7.203125 C 8.835938 7.1875 8.988281 7.179688 9.132812 7.1875 C 9.195312 7.191406 9.296875 7.21875 9.308594 7.253906 C 9.425781 7.675781 9.75 7.683594 10.113281 7.667969 C 10.136719 7.699219 10.132812 7.726562 10.121094 7.78125 C 10.109375 7.808594 10.105469 7.835938 10.105469 7.835938 C 10.121094 7.941406 10.136719 8.046875 10.152344 8.199219 C 10.207031 8.601562 10.257812 8.953125 10.3125 9.304688 C 10.058594 9.304688 9.800781 9.304688 9.554688 9.304688 C 9.539062 9.277344 9.519531 9.261719 9.519531 9.246094 C 9.515625 9.074219 9.582031 8.859375 9.503906 8.742188 C 9.429688 8.636719 9.199219 8.640625 9.046875 8.585938 C 8.410156 8.359375 8.085938 7.847656 8.164062 7.148438 C 8.269531 7.144531 8.382812 7.136719 8.523438 7.132812 C 8.558594 7.179688 8.566406 7.230469 8.578125 7.292969 C 8.613281 7.265625 8.640625 7.242188 8.679688 7.203125 Z M 8.679688 7.203125 "/>
<path style=" stroke:none;fill-rule:nonzero;fill:rgb(20%,12.156863%,7.843137%);fill-opacity:1;" d="M 8.972656 6.722656 C 8.980469 6.730469 8.980469 6.742188 8.964844 6.761719 C 8.949219 6.757812 8.945312 6.746094 8.941406 6.730469 C 8.941406 6.730469 8.953125 6.726562 8.972656 6.722656 Z M 8.972656 6.722656 "/>
<path style=" stroke:none;fill-rule:nonzero;fill:rgb(97.254902%,83.921569%,69.803922%);fill-opacity:1;" d="M 10.320312 9.324219 C 10.257812 8.953125 10.207031 8.601562 10.15625 8.21875 C 10.542969 8.609375 10.984375 8.878906 11.578125 8.859375 C 11.917969 8.847656 12.179688 8.703125 12.453125 8.53125 C 12.390625 8.886719 12.304688 9.222656 12.234375 9.5625 C 12.21875 9.636719 12.273438 9.722656 12.296875 9.8125 C 12.308594 9.828125 12.316406 9.828125 12.324219 9.832031 C 12.316406 9.820312 12.308594 9.808594 12.300781 9.777344 C 12.398438 9.320312 12.5 8.882812 12.597656 8.449219 C 12.777344 8.476562 12.980469 8.457031 13.140625 8.53125 C 14.164062 9.003906 15.136719 8.835938 16.085938 8.332031 C 16.425781 8.148438 16.742188 7.929688 17.085938 7.71875 C 17.285156 9.007812 16.515625 9.832031 15.632812 10.550781 C 15.144531 10.945312 14.535156 11.195312 13.980469 11.511719 C 13.933594 11.539062 13.894531 11.578125 13.832031 11.644531 C 13.710938 11.707031 13.605469 11.734375 13.472656 11.757812 C 13.382812 11.761719 13.3125 11.761719 13.226562 11.757812 C 12.925781 11.675781 12.644531 11.597656 12.363281 11.523438 C 11.589844 11.152344 10.941406 10.644531 10.554688 9.855469 C 10.46875 9.691406 10.40625 9.515625 10.320312 9.324219 M 14.804688 10.042969 C 13.984375 10.394531 13.148438 10.699219 12.21875 10.730469 C 12.441406 10.894531 12.664062 11.089844 12.910156 11.125 C 13.15625 11.160156 13.4375 11.066406 13.679688 10.96875 C 14.15625 10.78125 14.59375 10.519531 14.871094 10.035156 C 14.863281 10.035156 14.859375 10.039062 14.804688 10.042969 Z M 14.804688 10.042969 "/>
<path style=" stroke:none;fill-rule:nonzero;fill:rgb(29.411765%,11.764706%,80.784314%);fill-opacity:1;" d="M 15.679688 13.664062 C 15.890625 13.738281 16.164062 13.699219 16.277344 14.007812 C 16.015625 14.113281 15.757812 14.199219 15.511719 14.316406 C 14.292969 14.898438 13.078125 15.492188 11.859375 16.078125 C 11.746094 16.132812 11.621094 16.171875 11.480469 16.214844 C 12.113281 15.792969 12.765625 15.367188 13.421875 14.945312 C 13.714844 14.761719 14.011719 14.585938 14.339844 14.386719 C 14.808594 14.132812 15.246094 13.898438 15.679688 13.664062 Z M 15.679688 13.664062 "/>
<path style=" stroke:none;fill-rule:nonzero;fill:rgb(21.176471%,5.490196%,55.686275%);fill-opacity:1;" d="M 15.679688 13.640625 C 15.246094 13.898438 14.808594 14.132812 14.351562 14.371094 C 13.582031 13.503906 12.851562 12.621094 12.371094 11.542969 C 12.644531 11.597656 12.925781 11.675781 13.21875 11.777344 C 13.117188 11.9375 13 12.070312 12.890625 12.203125 C 13.230469 12.882812 13.6875 13.449219 14.261719 13.914062 C 14.351562 13.988281 14.539062 14.011719 14.648438 13.972656 C 15 13.84375 15.335938 13.679688 15.679688 13.527344 C 15.679688 13.558594 15.679688 13.585938 15.679688 13.640625 Z M 15.679688 13.640625 "/>
<path style=" stroke:none;fill-rule:nonzero;fill:rgb(29.411765%,11.764706%,80.784314%);fill-opacity:1;" d="M 11.152344 16.394531 C 11.167969 16.40625 11.167969 16.417969 11.167969 16.445312 C 11.144531 16.460938 11.117188 16.460938 11.074219 16.457031 C 11.082031 16.433594 11.109375 16.414062 11.152344 16.394531 Z M 11.152344 16.394531 "/>
<path style=" stroke:none;fill-rule:nonzero;fill:rgb(15.686275%,69.803922%,97.647059%);fill-opacity:1;" d="M 7.292969 4.472656 C 7.273438 4.550781 7.238281 4.632812 7.195312 4.734375 C 7.0625 4.792969 6.9375 4.832031 6.792969 4.871094 C 6.9375 4.738281 7.105469 4.609375 7.292969 4.472656 Z M 7.292969 4.472656 "/>
<path style=" stroke:none;fill-rule:nonzero;fill:rgb(15.686275%,69.803922%,97.647059%);fill-opacity:1;" d="M 6.753906 4.867188 C 6.746094 4.886719 6.714844 4.90625 6.667969 4.925781 C 6.679688 4.90625 6.707031 4.882812 6.753906 4.867188 Z M 6.753906 4.867188 "/>
<path style=" stroke:none;fill-rule:nonzero;fill:rgb(21.176471%,1.568627%,54.509804%);fill-opacity:1;" d="M 13.5 11.761719 C 13.605469 11.734375 13.710938 11.707031 13.828125 11.664062 C 13.972656 11.625 14.105469 11.597656 14.285156 11.566406 C 14.675781 11.589844 15.023438 11.605469 15.367188 11.644531 C 15.464844 11.65625 15.582031 11.699219 15.644531 11.765625 C 15.847656 11.996094 16.03125 12.242188 16.222656 12.480469 C 16.152344 12.648438 16.082031 12.820312 15.980469 13.003906 C 15.9375 13.035156 15.925781 13.054688 15.917969 13.070312 C 15.917969 13.070312 15.917969 13.066406 15.898438 13.066406 C 15.46875 13.277344 15.066406 13.5 14.648438 13.695312 C 14.5625 13.734375 14.394531 13.703125 14.328125 13.636719 C 14.042969 13.355469 13.765625 13.058594 13.515625 12.746094 C 13.125 12.261719 13.136719 12.253906 13.5 11.761719 M 14.765625 11.816406 C 14.515625 11.65625 14.355469 11.90625 14.214844 12 C 13.941406 12.1875 14.207031 12.363281 14.359375 12.527344 C 14.253906 12.53125 14.175781 12.535156 14 12.542969 C 14.167969 12.804688 14.304688 13.015625 14.449219 13.21875 C 14.464844 13.238281 14.566406 13.207031 14.617188 13.179688 C 14.667969 13.15625 14.710938 13.109375 14.753906 13.070312 C 14.867188 12.972656 15.039062 12.890625 15.070312 12.773438 C 15.101562 12.652344 14.992188 12.496094 14.949219 12.363281 C 14.964844 12.351562 15.078125 12.308594 15.078125 12.261719 C 15.078125 12.179688 15.027344 12.085938 14.972656 12.015625 C 14.925781 11.953125 14.84375 11.910156 14.765625 11.816406 Z M 14.765625 11.816406 "/>
<path style=" stroke:none;fill-rule:nonzero;fill:rgb(13.333333%,85.882353%,32.54902%);fill-opacity:1;" d="M 13.472656 11.757812 C 13.136719 12.253906 13.125 12.261719 13.515625 12.746094 C 13.765625 13.058594 14.042969 13.355469 14.328125 13.636719 C 14.394531 13.703125 14.5625 13.734375 14.648438 13.695312 C 15.066406 13.5 15.46875 13.277344 15.902344 13.066406 C 15.851562 13.210938 15.777344 13.355469 15.691406 13.511719 C 15.335938 13.679688 15 13.84375 14.648438 13.972656 C 14.539062 14.011719 14.351562 13.988281 14.261719 13.914062 C 13.6875 13.449219 13.230469 12.882812 12.890625 12.203125 C 13 12.070312 13.117188 11.9375 13.238281 11.785156 C 13.3125 11.761719 13.382812 11.761719 13.472656 11.757812 Z M 13.472656 11.757812 "/>
<path style=" stroke:none;fill-rule:nonzero;fill:rgb(14.509804%,82.352941%,34.117647%);fill-opacity:1;" d="M 16.242188 12.476562 C 16.03125 12.242188 15.847656 11.996094 15.644531 11.765625 C 15.582031 11.699219 15.464844 11.65625 15.367188 11.644531 C 15.023438 11.605469 14.675781 11.589844 14.308594 11.558594 C 14.414062 11.503906 14.546875 11.453125 14.699219 11.398438 C 14.730469 11.398438 14.738281 11.402344 14.746094 11.402344 C 15.46875 11.316406 15.980469 11.640625 16.378906 12.230469 C 16.351562 12.320312 16.308594 12.398438 16.242188 12.476562 Z M 16.242188 12.476562 "/>
<path style=" stroke:none;fill-rule:nonzero;fill:rgb(13.333333%,85.882353%,32.54902%);fill-opacity:1;" d="M 15.9375 13.074219 C 15.925781 13.054688 15.9375 13.035156 15.960938 13.015625 C 15.96875 13.03125 15.960938 13.050781 15.9375 13.074219 Z M 15.9375 13.074219 "/>
<path style=" stroke:none;fill-rule:nonzero;fill:rgb(14.901961%,70.588235%,99.607843%);fill-opacity:1;" d="M 16.25 17.9375 C 16.25 18.191406 16.257812 18.457031 16.203125 18.710938 C 16.121094 19.105469 15.886719 19.398438 15.472656 19.542969 C 15.453125 19.449219 15.46875 19.347656 15.449219 19.25 C 15.335938 18.589844 15.625 18.171875 16.25 17.9375 Z M 16.25 17.9375 "/>
<path style=" stroke:none;fill-rule:nonzero;fill:rgb(22.745098%,0.784314%,67.843137%);fill-opacity:1;" d="M 18.773438 16.097656 C 18.792969 16.082031 18.8125 16.070312 18.835938 16.054688 C 18.835938 16.054688 18.84375 16.070312 18.851562 16.078125 C 18.835938 16.082031 18.816406 16.089844 18.789062 16.097656 C 18.773438 16.097656 18.773438 16.097656 18.773438 16.097656 Z M 18.773438 16.097656 "/>
<path style=" stroke:none;fill-rule:nonzero;fill:rgb(13.333333%,88.235294%,32.54902%);fill-opacity:1;" d="M 14.019531 7.910156 C 14.433594 7.5625 14.898438 7.574219 15.222656 7.941406 C 14.882812 8.136719 14.527344 8.21875 14.144531 8.152344 C 14.03125 8.132812 13.882812 8.109375 14.019531 7.910156 Z M 14.019531 7.910156 "/>
<path style=" stroke:none;fill-rule:nonzero;fill:rgb(13.333333%,85.490196%,32.941176%);fill-opacity:1;" d="M 11.476562 8.417969 C 11.144531 8.488281 10.941406 8.296875 10.730469 8.125 C 11.011719 7.792969 11.445312 7.832031 11.703125 8.214844 C 11.636719 8.277344 11.566406 8.34375 11.476562 8.417969 Z M 11.476562 8.417969 "/>
<path style=" stroke:none;fill-rule:nonzero;fill:rgb(87.843137%,67.45098%,48.627451%);fill-opacity:1;" d="M 12.292969 9.804688 C 12.273438 9.722656 12.21875 9.636719 12.234375 9.5625 C 12.304688 9.222656 12.390625 8.886719 12.472656 8.527344 C 12.503906 8.488281 12.535156 8.46875 12.578125 8.453125 C 12.5 8.882812 12.398438 9.320312 12.300781 9.777344 C 12.296875 9.800781 12.292969 9.804688 12.292969 9.804688 Z M 12.292969 9.804688 "/>
<path style=" stroke:none;fill-rule:nonzero;fill:rgb(2.745098%,53.72549%,99.215686%);fill-opacity:1;" d="M 10.113281 7.832031 C 10.105469 7.835938 10.109375 7.808594 10.113281 7.804688 C 10.117188 7.796875 10.128906 7.8125 10.128906 7.8125 C 10.128906 7.8125 10.121094 7.828125 10.113281 7.832031 Z M 10.113281 7.832031 "/>
<path style=" stroke:none;fill-rule:nonzero;fill:rgb(100%,99.215686%,98.431373%);fill-opacity:1;" d="M 14.851562 10.039062 C 14.59375 10.519531 14.15625 10.78125 13.679688 10.96875 C 13.4375 11.066406 13.15625 11.160156 12.910156 11.125 C 12.664062 11.089844 12.441406 10.894531 12.21875 10.730469 C 13.148438 10.699219 13.984375 10.394531 14.828125 10.039062 C 14.851562 10.039062 14.851562 10.039062 14.851562 10.039062 Z M 14.851562 10.039062 "/>
<path style=" stroke:none;fill-rule:nonzero;fill:rgb(87.843137%,67.45098%,48.627451%);fill-opacity:1;" d="M 12.296875 9.800781 C 12.308594 9.808594 12.316406 9.820312 12.324219 9.832031 C 12.316406 9.828125 12.308594 9.828125 12.296875 9.8125 C 12.292969 9.804688 12.296875 9.800781 12.296875 9.800781 Z M 12.296875 9.800781 "/>
<path style=" stroke:none;fill-rule:nonzero;fill:rgb(13.333333%,85.490196%,32.941176%);fill-opacity:1;" d="M 14.773438 11.839844 C 14.84375 11.910156 14.925781 11.953125 14.972656 12.015625 C 15.027344 12.085938 15.078125 12.179688 15.078125 12.261719 C 15.078125 12.308594 14.964844 12.351562 14.949219 12.363281 C 14.992188 12.496094 15.101562 12.652344 15.070312 12.773438 C 15.039062 12.890625 14.867188 12.972656 14.753906 13.070312 C 14.710938 13.109375 14.667969 13.15625 14.617188 13.179688 C 14.566406 13.207031 14.464844 13.238281 14.449219 13.21875 C 14.304688 13.015625 14.167969 12.804688 14 12.542969 C 14.175781 12.535156 14.253906 12.53125 14.359375 12.527344 C 14.207031 12.363281 13.941406 12.1875 14.214844 12 C 14.355469 11.90625 14.515625 11.65625 14.773438 11.839844 Z M 14.773438 11.839844 "/>
</g>
</svg>
