<?xml version="1.0" encoding="UTF-8"?>
<svg xmlns="http://www.w3.org/2000/svg" xmlns:xlink="http://www.w3.org/1999/xlink" width="23px" height="24px" viewBox="0 0 23 23" version="1.1">
<defs>
<clipPath id="clip1">
  <path d="M 2 6 L 8 6 L 8 14 L 2 14 Z M 2 6 "/>
</clipPath>
<clipPath id="clip2">
  <path d="M 22.523438 11.859375 C 22.523438 17.324219 17.949219 21.753906 12.308594 21.753906 C 6.664062 21.753906 2.089844 17.324219 2.089844 11.859375 C 2.089844 6.390625 6.664062 1.960938 12.308594 1.960938 C 17.949219 1.960938 22.523438 6.390625 22.523438 11.859375 Z M 22.523438 11.859375 "/>
</clipPath>
<clipPath id="clip3">
  <path d="M 7 10 L 13 10 L 13 17 L 7 17 Z M 7 10 "/>
</clipPath>
<clipPath id="clip4">
  <path d="M 22.523438 11.859375 C 22.523438 17.324219 17.949219 21.753906 12.308594 21.753906 C 6.664062 21.753906 2.089844 17.324219 2.089844 11.859375 C 2.089844 6.390625 6.664062 1.960938 12.308594 1.960938 C 17.949219 1.960938 22.523438 6.390625 22.523438 11.859375 Z M 22.523438 11.859375 "/>
</clipPath>
<clipPath id="clip5">
  <path d="M 7 2 L 13 2 L 13 9 L 7 9 Z M 7 2 "/>
</clipPath>
<clipPath id="clip6">
  <path d="M 22.523438 11.859375 C 22.523438 17.324219 17.949219 21.753906 12.308594 21.753906 C 6.664062 21.753906 2.089844 17.324219 2.089844 11.859375 C 2.089844 6.390625 6.664062 1.960938 12.308594 1.960938 C 17.949219 1.960938 22.523438 6.390625 22.523438 11.859375 Z M 22.523438 11.859375 "/>
</clipPath>
<clipPath id="clip7">
  <path d="M 12 14 L 18 14 L 18 21 L 12 21 Z M 12 14 "/>
</clipPath>
<clipPath id="clip8">
  <path d="M 22.523438 11.859375 C 22.523438 17.324219 17.949219 21.753906 12.308594 21.753906 C 6.664062 21.753906 2.089844 17.324219 2.089844 11.859375 C 2.089844 6.390625 6.664062 1.960938 12.308594 1.960938 C 17.949219 1.960938 22.523438 6.390625 22.523438 11.859375 Z M 22.523438 11.859375 "/>
</clipPath>
<clipPath id="clip9">
  <path d="M 12 6 L 18 6 L 18 14 L 12 14 Z M 12 6 "/>
</clipPath>
<clipPath id="clip10">
  <path d="M 22.523438 11.859375 C 22.523438 17.324219 17.949219 21.753906 12.308594 21.753906 C 6.664062 21.753906 2.089844 17.324219 2.089844 11.859375 C 2.089844 6.390625 6.664062 1.960938 12.308594 1.960938 C 17.949219 1.960938 22.523438 6.390625 22.523438 11.859375 Z M 22.523438 11.859375 "/>
</clipPath>
<clipPath id="clip11">
  <path d="M 17 10 L 23 10 L 23 17 L 17 17 Z M 17 10 "/>
</clipPath>
<clipPath id="clip12">
  <path d="M 22.523438 11.859375 C 22.523438 17.324219 17.949219 21.753906 12.308594 21.753906 C 6.664062 21.753906 2.089844 17.324219 2.089844 11.859375 C 2.089844 6.390625 6.664062 1.960938 12.308594 1.960938 C 17.949219 1.960938 22.523438 6.390625 22.523438 11.859375 Z M 22.523438 11.859375 "/>
</clipPath>
<clipPath id="clip13">
  <path d="M 15 12 L 23 12 L 23 16 L 15 16 Z M 15 12 "/>
</clipPath>
<clipPath id="clip14">
  <path d="M 22.523438 11.859375 C 22.523438 17.324219 17.949219 21.753906 12.308594 21.753906 C 6.664062 21.753906 2.089844 17.324219 2.089844 11.859375 C 2.089844 6.390625 6.664062 1.960938 12.308594 1.960938 C 17.949219 1.960938 22.523438 6.390625 22.523438 11.859375 Z M 22.523438 11.859375 "/>
</clipPath>
</defs>
<g id="surface1">
<path style=" stroke:none;fill-rule:nonzero;fill:rgb(1.176471%,52.941176%,100%);fill-opacity:1;" d="M 22.523438 11.859375 C 22.523438 17.324219 17.949219 21.753906 12.308594 21.753906 C 6.664062 21.753906 2.089844 17.324219 2.089844 11.859375 C 2.089844 6.390625 6.664062 1.960938 12.308594 1.960938 C 17.949219 1.960938 22.523438 6.390625 22.523438 11.859375 Z M 22.523438 11.859375 "/>
<g clip-path="url(#clip1)" clip-rule="nonzero">
<g clip-path="url(#clip2)" clip-rule="nonzero">
<path style=" stroke:none;fill-rule:nonzero;fill:rgb(15.294118%,71.764706%,100%);fill-opacity:1;" d="M 6.945312 8.921875 L 6.945312 9.003906 L 5.59375 9.003906 L 5.59375 8.972656 C 5.59375 8.738281 5.4375 8.515625 5.007812 8.515625 C 4.609375 8.515625 4.421875 8.632812 4.421875 8.808594 C 4.421875 9.503906 7.039062 8.976562 7.039062 10.730469 C 7.039062 11.800781 6.34375 12.3125 5.257812 12.398438 L 5.375 13.054688 L 4.375 13.054688 L 4.492188 12.390625 C 3.578125 12.292969 2.820312 11.804688 2.820312 10.859375 C 2.820312 10.804688 2.824219 10.75 2.828125 10.695312 L 4.195312 10.695312 C 4.191406 10.726562 4.1875 10.757812 4.1875 10.792969 C 4.1875 11.027344 4.328125 11.277344 4.84375 11.277344 C 5.414062 11.277344 5.515625 11.132812 5.515625 10.980469 C 5.515625 10.285156 2.929688 10.875 2.929688 8.984375 C 2.929688 8.121094 3.59375 7.597656 4.492188 7.476562 L 4.375 6.824219 L 5.375 6.824219 L 5.257812 7.453125 C 6.203125 7.535156 6.945312 7.988281 6.945312 8.921875 Z M 6.945312 8.921875 "/>
</g>
</g>
<g clip-path="url(#clip3)" clip-rule="nonzero">
<g clip-path="url(#clip4)" clip-rule="nonzero">
<path style=" stroke:none;fill-rule:nonzero;fill:rgb(15.294118%,71.764706%,100%);fill-opacity:1;" d="M 11.96875 12.628906 L 11.96875 12.710938 L 10.617188 12.710938 L 10.617188 12.679688 C 10.617188 12.445312 10.460938 12.21875 10.03125 12.21875 C 9.632812 12.21875 9.445312 12.339844 9.445312 12.515625 C 9.445312 13.210938 12.0625 12.679688 12.0625 14.4375 C 12.0625 15.503906 11.367188 16.019531 10.28125 16.101562 L 10.398438 16.761719 L 9.398438 16.761719 L 9.515625 16.09375 C 8.601562 15.996094 7.84375 15.511719 7.84375 14.566406 C 7.84375 14.511719 7.847656 14.453125 7.851562 14.398438 L 9.21875 14.398438 C 9.214844 14.433594 9.210938 14.464844 9.210938 14.496094 C 9.210938 14.734375 9.351562 14.980469 9.867188 14.980469 C 10.441406 14.980469 10.542969 14.839844 10.542969 14.6875 C 10.542969 13.992188 7.953125 14.582031 7.953125 12.6875 C 7.953125 11.824219 8.617188 11.304688 9.515625 11.183594 L 9.398438 10.53125 L 10.398438 10.53125 L 10.28125 11.160156 C 11.226562 11.242188 11.96875 11.695312 11.96875 12.628906 Z M 11.96875 12.628906 "/>
</g>
</g>
<g clip-path="url(#clip5)" clip-rule="nonzero">
<g clip-path="url(#clip6)" clip-rule="nonzero">
<path style=" stroke:none;fill-rule:nonzero;fill:rgb(15.294118%,71.764706%,100%);fill-opacity:1;" d="M 11.96875 4.6875 L 11.96875 4.769531 L 10.617188 4.769531 L 10.617188 4.742188 C 10.617188 4.503906 10.460938 4.28125 10.03125 4.28125 C 9.632812 4.28125 9.445312 4.402344 9.445312 4.578125 C 9.445312 5.273438 12.0625 4.746094 12.0625 6.5 C 12.0625 7.566406 11.367188 8.082031 10.28125 8.164062 L 10.398438 8.824219 L 9.398438 8.824219 L 9.515625 8.15625 C 8.601562 8.058594 7.84375 7.574219 7.84375 6.628906 C 7.84375 6.574219 7.847656 6.519531 7.851562 6.460938 L 9.21875 6.460938 C 9.214844 6.496094 9.210938 6.527344 9.210938 6.5625 C 9.210938 6.796875 9.351562 7.042969 9.867188 7.042969 C 10.441406 7.042969 10.542969 6.902344 10.542969 6.75 C 10.542969 6.054688 7.953125 6.644531 7.953125 4.75 C 7.953125 3.886719 8.617188 3.367188 9.515625 3.246094 L 9.398438 2.589844 L 10.398438 2.589844 L 10.28125 3.21875 C 11.226562 3.300781 11.96875 3.757812 11.96875 4.6875 Z M 11.96875 4.6875 "/>
</g>
</g>
<g clip-path="url(#clip7)" clip-rule="nonzero">
<g clip-path="url(#clip8)" clip-rule="nonzero">
<path style=" stroke:none;fill-rule:nonzero;fill:rgb(15.294118%,71.764706%,100%);fill-opacity:1;" d="M 16.992188 16.859375 L 16.992188 16.941406 L 15.640625 16.941406 L 15.640625 16.914062 C 15.640625 16.679688 15.484375 16.453125 15.054688 16.453125 C 14.65625 16.453125 14.46875 16.574219 14.46875 16.75 C 14.46875 17.445312 17.085938 16.917969 17.085938 18.671875 C 17.085938 19.738281 16.390625 20.253906 15.304688 20.335938 L 15.417969 20.992188 L 14.421875 20.992188 L 14.539062 20.328125 C 13.625 20.226562 12.867188 19.746094 12.867188 18.796875 C 12.867188 18.742188 12.867188 18.6875 12.875 18.632812 L 14.242188 18.632812 C 14.238281 18.664062 14.234375 18.695312 14.234375 18.730469 C 14.234375 18.964844 14.375 19.214844 14.890625 19.214844 C 15.460938 19.214844 15.5625 19.070312 15.5625 18.917969 C 15.5625 18.222656 12.976562 18.8125 12.976562 16.921875 C 12.976562 16.058594 13.640625 15.535156 14.539062 15.414062 L 14.421875 14.761719 L 15.417969 14.761719 L 15.300781 15.390625 C 16.25 15.472656 16.992188 15.929688 16.992188 16.859375 Z M 16.992188 16.859375 "/>
</g>
</g>
<g clip-path="url(#clip9)" clip-rule="nonzero">
<g clip-path="url(#clip10)" clip-rule="nonzero">
<path style=" stroke:none;fill-rule:nonzero;fill:rgb(15.294118%,71.764706%,100%);fill-opacity:1;" d="M 16.992188 8.921875 L 16.992188 9.003906 L 15.640625 9.003906 L 15.640625 8.972656 C 15.640625 8.738281 15.484375 8.515625 15.054688 8.515625 C 14.65625 8.515625 14.46875 8.632812 14.46875 8.808594 C 14.46875 9.503906 17.085938 8.976562 17.085938 10.730469 C 17.085938 11.800781 16.390625 12.3125 15.304688 12.398438 L 15.417969 13.054688 L 14.421875 13.054688 L 14.539062 12.386719 C 13.625 12.289062 12.867188 11.804688 12.867188 10.859375 C 12.867188 10.800781 12.867188 10.746094 12.875 10.691406 L 14.242188 10.691406 C 14.238281 10.722656 14.234375 10.757812 14.234375 10.789062 C 14.234375 11.023438 14.375 11.273438 14.890625 11.273438 C 15.460938 11.273438 15.5625 11.128906 15.5625 10.980469 C 15.5625 10.28125 12.976562 10.875 12.976562 8.980469 C 12.976562 8.117188 13.640625 7.59375 14.539062 7.472656 L 14.421875 6.824219 L 15.417969 6.824219 L 15.300781 7.453125 C 16.25 7.535156 16.992188 7.988281 16.992188 8.921875 Z M 16.992188 8.921875 "/>
</g>
</g>
<g clip-path="url(#clip11)" clip-rule="nonzero">
<g clip-path="url(#clip12)" clip-rule="nonzero">
<path style=" stroke:none;fill-rule:nonzero;fill:rgb(15.294118%,71.764706%,100%);fill-opacity:1;" d="M 22.015625 12.628906 L 22.015625 12.710938 L 20.664062 12.710938 L 20.664062 12.679688 C 20.664062 12.445312 20.507812 12.21875 20.078125 12.21875 C 19.679688 12.21875 19.492188 12.339844 19.492188 12.515625 C 19.492188 13.210938 22.109375 12.679688 22.109375 14.4375 C 22.109375 15.503906 21.414062 16.019531 20.328125 16.101562 L 20.445312 16.761719 L 19.445312 16.761719 L 19.5625 16.09375 C 18.648438 15.996094 17.890625 15.511719 17.890625 14.566406 C 17.886719 14.511719 17.890625 14.453125 17.898438 14.398438 L 19.265625 14.398438 C 19.257812 14.433594 19.253906 14.464844 19.257812 14.496094 C 19.257812 14.734375 19.398438 14.980469 19.914062 14.980469 C 20.484375 14.980469 20.585938 14.839844 20.585938 14.6875 C 20.585938 13.992188 18 14.582031 18 12.6875 C 18 11.824219 18.664062 11.304688 19.5625 11.183594 L 19.445312 10.53125 L 20.445312 10.53125 L 20.328125 11.160156 C 21.273438 11.242188 22.015625 11.695312 22.015625 12.628906 Z M 22.015625 12.628906 "/>
</g>
</g>
<g clip-path="url(#clip13)" clip-rule="nonzero">
<g clip-path="url(#clip14)" clip-rule="nonzero">
<path style=" stroke:none;fill-rule:nonzero;fill:rgb(12.941176%,90.980392%,31.372549%);fill-opacity:1;" d="M 22.445312 12.359375 C 22.578125 12.6875 22.671875 13.03125 22.71875 13.382812 C 22.71875 13.382812 21.785156 15.25 19.570312 15.78125 C 17.355469 16.3125 15.960938 15.632812 15.960938 15.632812 L 15.199219 14.648438 C 15.199219 14.648438 20.289062 16.429688 22.445312 12.359375 Z M 22.445312 12.359375 "/>
</g>
</g>
<path style=" stroke:none;fill-rule:nonzero;fill:rgb(21.176471%,0%,54.901961%);fill-opacity:1;" d="M 12.558594 6.234375 C 11.785156 7.058594 11.613281 9.070312 12.71875 11.382812 C 13.421875 12.859375 14.746094 14.300781 16.121094 15.59375 C 15.144531 16.296875 14.382812 17.152344 14.195312 17.753906 C 13.992188 18.394531 14.363281 20.597656 14.535156 21.515625 C 15.074219 21.398438 15.601562 21.242188 16.113281 21.042969 L 16.207031 18.84375 L 18.378906 17.507812 C 18.378906 17.507812 18.082031 18.347656 17.90625 19.109375 C 17.800781 19.550781 17.703125 19.953125 17.609375 20.324219 C 20.433594 18.664062 22.253906 15.785156 22.503906 12.59375 C 22.054688 11.035156 21.128906 9.054688 19.726562 7.550781 C 16.554688 4.164062 13.679688 5.046875 12.558594 6.234375 Z M 12.558594 6.234375 "/>
<path style=" stroke:none;fill-rule:nonzero;fill:rgb(15.294118%,71.764706%,100%);fill-opacity:1;" d="M 18.3125 3.851562 C 18.101562 4.105469 17.992188 4.421875 18 4.75 C 18 6.640625 20.585938 6.050781 20.585938 6.746094 C 20.585938 6.898438 20.484375 7.042969 19.914062 7.042969 C 19.398438 7.042969 19.257812 6.792969 19.257812 6.558594 C 19.253906 6.523438 19.257812 6.492188 19.265625 6.460938 L 17.898438 6.460938 C 17.890625 6.515625 17.886719 6.570312 17.890625 6.625 C 17.890625 7.570312 18.648438 8.054688 19.5625 8.15625 L 19.445312 8.820312 L 20.445312 8.820312 L 20.328125 8.164062 C 20.851562 8.121094 21.28125 7.980469 21.589844 7.726562 C 20.859375 6.183594 19.730469 4.847656 18.3125 3.851562 Z M 18.3125 3.851562 "/>
<path style=" stroke:none;fill-rule:nonzero;fill:rgb(12.941176%,90.980392%,31.372549%);fill-opacity:1;" d="M 22.78125 9.792969 C 22.601562 8.9375 22.3125 8.109375 21.921875 7.324219 C 21.839844 7.480469 21.726562 7.617188 21.589844 7.726562 C 22.3125 9.25 22.621094 10.925781 22.496094 12.59375 C 22.609375 12.972656 22.695312 13.355469 22.757812 13.742188 C 22.765625 13.808594 22.777344 13.875 22.785156 13.941406 C 23.074219 12.570312 23.070312 11.160156 22.78125 9.792969 Z M 22.78125 9.792969 "/>
<path style=" stroke:none;fill-rule:nonzero;fill:rgb(15.294118%,71.764706%,100%);fill-opacity:1;" d="M 4.828125 5.113281 L 5.375 5.113281 L 5.296875 4.65625 C 5.136719 4.804688 4.980469 4.957031 4.828125 5.113281 Z M 4.828125 5.113281 "/>
<path style=" stroke:none;fill-rule:nonzero;fill:rgb(15.294118%,71.764706%,100%);fill-opacity:1;" d="M 6.933594 3.4375 C 6.449219 3.726562 5.996094 4.054688 5.570312 4.417969 C 6.242188 4.304688 6.730469 3.988281 6.933594 3.4375 Z M 6.933594 3.4375 "/>
<path style=" stroke:none;fill-rule:nonzero;fill:rgb(12.941176%,90.980392%,31.372549%);fill-opacity:1;" d="M 5.296875 4.660156 C 5.386719 4.574219 5.476562 4.496094 5.566406 4.417969 C 5.464844 4.433594 5.363281 4.445312 5.253906 4.453125 Z M 5.296875 4.660156 "/>
<path style=" stroke:none;fill-rule:nonzero;fill:rgb(12.941176%,90.980392%,31.372549%);fill-opacity:1;" d="M 18.207031 3.222656 C 16.460938 2.101562 14.410156 1.5 12.316406 1.503906 C 10.46875 1.5 8.652344 1.964844 7.042969 2.84375 C 7.039062 3.046875 7.003906 3.25 6.9375 3.4375 C 10.324219 1.410156 14.621094 1.476562 17.945312 3.605469 C 18.070312 3.6875 18.191406 3.769531 18.3125 3.855469 C 18.414062 3.730469 18.539062 3.625 18.675781 3.539062 C 18.523438 3.433594 18.367188 3.324219 18.207031 3.222656 Z M 18.207031 3.222656 "/>
<path style=" stroke:none;fill-rule:nonzero;fill:rgb(15.294118%,71.764706%,100%);fill-opacity:1;" d="M 5.515625 18.917969 C 5.519531 19.011719 5.464844 19.09375 5.378906 19.132812 C 5.710938 19.429688 6.066406 19.707031 6.441406 19.960938 C 6.824219 19.6875 7.039062 19.265625 7.039062 18.667969 C 7.039062 16.910156 4.421875 17.441406 4.421875 16.746094 C 4.421875 16.570312 4.609375 16.449219 5.007812 16.449219 C 5.4375 16.449219 5.59375 16.675781 5.59375 16.910156 L 5.59375 16.9375 L 6.949219 16.9375 L 6.949219 16.855469 C 6.949219 15.925781 6.203125 15.46875 5.257812 15.386719 L 5.375 14.757812 L 4.375 14.757812 L 4.492188 15.410156 C 3.882812 15.492188 3.382812 15.757812 3.121094 16.191406 C 3.539062 17.023438 4.074219 17.796875 4.710938 18.484375 C 5.160156 18.578125 5.515625 18.660156 5.515625 18.917969 Z M 5.515625 18.917969 "/>
<path style=" stroke:none;fill-rule:nonzero;fill:rgb(12.941176%,90.980392%,31.372549%);fill-opacity:1;" d="M 14.53125 21.515625 C 13.796875 21.675781 13.050781 21.757812 12.296875 21.757812 C 10.296875 21.757812 8.335938 21.1875 6.667969 20.113281 C 6.59375 20.066406 6.515625 20.015625 6.441406 19.964844 C 6.066406 19.710938 5.710938 19.429688 5.378906 19.132812 C 5.144531 18.921875 4.921875 18.707031 4.710938 18.480469 C 1.601562 15.128906 1.21875 10.160156 3.789062 6.398438 C 4.097656 5.941406 4.445312 5.511719 4.828125 5.113281 L 4.375 5.113281 L 4.417969 4.867188 C 4.042969 5.265625 3.699219 5.691406 3.390625 6.144531 C 0.566406 10.261719 1.148438 15.738281 4.773438 19.210938 C 5.148438 19.570312 5.546875 19.898438 5.96875 20.199219 C 6.113281 20.300781 6.257812 20.398438 6.40625 20.496094 C 8.152344 21.617188 10.203125 22.214844 12.296875 22.214844 C 13.042969 22.214844 13.785156 22.140625 14.515625 21.992188 C 14.574219 21.949219 14.609375 21.925781 14.609375 21.925781 C 14.609375 21.925781 14.578125 21.769531 14.53125 21.515625 Z M 14.53125 21.515625 "/>
<path style=" stroke:none;fill-rule:nonzero;fill:rgb(12.941176%,90.980392%,31.372549%);fill-opacity:1;" d="M 4.417969 4.867188 L 4.375 5.113281 L 4.828125 5.113281 C 4.980469 4.957031 5.136719 4.804688 5.296875 4.65625 L 5.257812 4.457031 C 5.367188 4.449219 5.46875 4.4375 5.570312 4.417969 C 5.996094 4.058594 6.449219 3.730469 6.933594 3.441406 C 7 3.25 7.039062 3.050781 7.039062 2.847656 C 6.0625 3.382812 5.175781 4.066406 4.417969 4.867188 Z M 4.417969 4.867188 "/>
<path style=" stroke:none;fill-rule:nonzero;fill:rgb(12.941176%,90.980392%,31.372549%);fill-opacity:1;" d="M 19.492188 4.574219 C 19.492188 4.839844 19.875 4.925781 20.351562 5.03125 C 20.132812 4.792969 19.90625 4.566406 19.667969 4.347656 C 19.566406 4.378906 19.496094 4.46875 19.492188 4.574219 Z M 19.492188 4.574219 "/>
<path style=" stroke:none;fill-rule:nonzero;fill:rgb(12.941176%,90.980392%,31.372549%);fill-opacity:1;" d="M 21.921875 7.324219 C 21.507812 6.496094 20.980469 5.722656 20.351562 5.03125 C 19.878906 4.925781 19.492188 4.839844 19.492188 4.574219 C 19.496094 4.46875 19.566406 4.378906 19.667969 4.34375 C 19.355469 4.058594 19.023438 3.789062 18.675781 3.539062 C 18.539062 3.625 18.414062 3.730469 18.3125 3.851562 C 19.730469 4.847656 20.859375 6.183594 21.589844 7.726562 C 21.726562 7.613281 21.839844 7.476562 21.921875 7.324219 Z M 21.921875 7.324219 "/>
<path style=" stroke:none;fill-rule:nonzero;fill:rgb(23.137255%,0%,67.843137%);fill-opacity:1;" d="M 18 20.078125 C 18.175781 19.535156 18.335938 19.0625 18.46875 18.746094 C 19.023438 17.351562 20.136719 16.222656 20.136719 16.222656 C 20.136719 16.222656 18.984375 16.566406 18.378906 17.507812 C 18.121094 17.902344 17.714844 19.15625 17.332031 20.476562 C 17.421875 20.429688 17.511719 20.378906 17.601562 20.324219 C 17.734375 20.246094 17.867188 20.164062 18 20.078125 Z M 18 20.078125 "/>
<path style=" stroke:none;fill-rule:nonzero;fill:rgb(12.941176%,90.980392%,31.372549%);fill-opacity:1;" d="M 16.109375 21.042969 L 16.085938 21.546875 C 16.453125 21.410156 16.808594 21.257812 17.15625 21.085938 C 17.210938 20.882812 17.269531 20.679688 17.328125 20.476562 C 16.9375 20.691406 16.527344 20.882812 16.109375 21.042969 Z M 16.109375 21.042969 "/>
<path style=" stroke:none;fill-rule:nonzero;fill:rgb(12.941176%,90.980392%,31.372549%);fill-opacity:1;" d="M 17.601562 20.324219 C 17.511719 20.378906 17.421875 20.429688 17.332031 20.476562 C 17.269531 20.679688 17.214844 20.886719 17.15625 21.089844 C 17.25 21.042969 17.347656 20.992188 17.441406 20.945312 C 17.492188 20.75 17.542969 20.542969 17.601562 20.324219 Z M 17.601562 20.324219 "/>
<path style=" stroke:none;fill-rule:nonzero;fill:rgb(15.294118%,71.764706%,100%);fill-opacity:1;" d="M 18.148438 19.984375 C 18.496094 19.746094 18.832031 19.492188 19.148438 19.214844 C 18.695312 19.351562 18.335938 19.609375 18.148438 19.984375 Z M 18.148438 19.984375 "/>
<path style=" stroke:none;fill-rule:nonzero;fill:rgb(15.294118%,71.764706%,100%);fill-opacity:1;" d="M 19.910156 18.46875 L 19.445312 18.46875 L 19.515625 18.871094 C 19.652344 18.742188 19.78125 18.609375 19.910156 18.46875 Z M 19.910156 18.46875 "/>
<path style=" stroke:none;fill-rule:nonzero;fill:rgb(12.941176%,90.980392%,31.372549%);fill-opacity:1;" d="M 20.421875 18.601562 C 21.605469 17.265625 22.417969 15.660156 22.785156 13.941406 C 22.777344 13.875 22.769531 13.808594 22.761719 13.742188 C 22.699219 13.355469 22.609375 12.972656 22.5 12.59375 C 22.328125 14.777344 21.421875 16.84375 19.914062 18.46875 C 19.785156 18.609375 19.652344 18.742188 19.519531 18.871094 C 19.398438 18.988281 19.277344 19.101562 19.152344 19.210938 C 18.832031 19.488281 18.5 19.746094 18.148438 19.984375 C 18.097656 20.015625 18.050781 20.046875 18 20.082031 C 17.933594 20.296875 17.855469 20.523438 17.78125 20.757812 C 17.855469 20.714844 17.925781 20.671875 18 20.625 C 18.90625 20.074219 19.726562 19.390625 20.421875 18.601562 Z M 20.421875 18.601562 "/>
<path style=" stroke:none;fill-rule:nonzero;fill:rgb(12.941176%,90.980392%,31.372549%);fill-opacity:1;" d="M 17.601562 20.324219 C 17.546875 20.542969 17.492188 20.75 17.441406 20.945312 C 17.554688 20.882812 17.667969 20.820312 17.78125 20.753906 C 17.855469 20.519531 17.929688 20.296875 18 20.078125 C 17.867188 20.164062 17.734375 20.246094 17.601562 20.324219 Z M 17.601562 20.324219 "/>
<path style=" stroke:none;fill-rule:nonzero;fill:rgb(12.941176%,90.980392%,31.372549%);fill-opacity:1;" d="M 14.53125 21.515625 C 14.578125 21.769531 14.609375 21.925781 14.609375 21.925781 C 14.609375 21.925781 14.574219 21.949219 14.515625 21.992188 C 15.050781 21.882812 15.574219 21.734375 16.085938 21.546875 L 16.109375 21.042969 C 15.597656 21.242188 15.070312 21.402344 14.53125 21.515625 Z M 14.53125 21.515625 "/>
<path style=" stroke:none;fill-rule:nonzero;fill:rgb(0%,69.803922%,36.470588%);fill-opacity:1;" d="M 5.121094 17.828125 C 5.121094 17.828125 4.839844 20.726562 5.121094 22.90625 C 5.121094 22.90625 8.613281 22.03125 10.75 22.03125 C 12.886719 22.03125 15.117188 22.90625 15.117188 22.90625 C 15.117188 22.90625 15.691406 19.058594 15.117188 17.828125 C 15.117188 17.828125 11.472656 18.238281 10.359375 18.292969 C 9.246094 18.351562 5.121094 17.828125 5.121094 17.828125 Z M 5.121094 17.828125 "/>
<path style=" stroke:none;fill-rule:nonzero;fill:rgb(26.27451%,90.980392%,60%);fill-opacity:1;" d="M 5.722656 18.503906 C 5.453125 18.691406 5.453125 19.3125 5.835938 19.433594 C 6.21875 19.554688 6.527344 19.128906 6.363281 18.699219 C 6.242188 18.378906 5.972656 18.332031 5.722656 18.503906 Z M 5.722656 18.503906 "/>
<path style=" stroke:none;fill-rule:nonzero;fill:rgb(26.27451%,90.980392%,60%);fill-opacity:1;" d="M 14.226562 21.253906 C 13.957031 21.4375 13.957031 22.058594 14.339844 22.179688 C 14.722656 22.304688 15.03125 21.878906 14.867188 21.449219 C 14.742188 21.125 14.472656 21.082031 14.226562 21.253906 Z M 14.226562 21.253906 "/>
<path style=" stroke:none;fill-rule:nonzero;fill:rgb(26.27451%,90.980392%,60%);fill-opacity:1;" d="M 9.175781 19.0625 C 8.09375 19.550781 8.09375 21.179688 9.625 21.5 C 11.160156 21.820312 12.410156 20.703125 11.753906 19.574219 C 11.257812 18.726562 10.167969 18.613281 9.175781 19.0625 Z M 9.175781 19.0625 "/>
<path style=" stroke:none;fill-rule:nonzero;fill:rgb(26.27451%,90.980392%,60%);fill-opacity:1;" d="M 5.777344 21.21875 C 5.492188 21.359375 5.4375 21.789062 5.671875 22.070312 C 5.90625 22.351562 6.394531 22.109375 6.414062 21.746094 C 6.4375 21.382812 6.167969 21.023438 5.777344 21.21875 Z M 5.777344 21.21875 "/>
<path style=" stroke:none;fill-rule:nonzero;fill:rgb(26.27451%,90.980392%,60%);fill-opacity:1;" d="M 14.238281 18.46875 C 13.957031 18.609375 13.902344 19.035156 14.136719 19.316406 C 14.371094 19.59375 14.851562 19.355469 14.878906 18.996094 C 14.90625 18.632812 14.625 18.28125 14.238281 18.46875 Z M 14.238281 18.46875 "/>
<path style=" stroke:none;fill-rule:nonzero;fill:rgb(0%,75.686275%,41.176471%);fill-opacity:1;" d="M 4.878906 15.628906 C 4.878906 15.628906 3.964844 18.40625 3.757812 20.59375 C 3.757812 20.59375 7.363281 20.460938 9.445312 20.902344 C 11.53125 21.34375 13.519531 22.667969 13.519531 22.667969 C 13.519531 22.667969 14.929688 19.03125 14.644531 17.707031 C 14.644531 17.707031 10.992188 17.351562 9.890625 17.175781 C 8.792969 17 4.878906 15.628906 4.878906 15.628906 Z M 4.878906 15.628906 "/>
<path style=" stroke:none;fill-rule:nonzero;fill:rgb(26.27451%,90.980392%,60%);fill-opacity:1;" d="M 5.316406 16.417969 C 5.011719 16.542969 4.875 17.148438 5.222656 17.347656 C 5.566406 17.546875 5.964844 17.195312 5.898438 16.742188 C 5.851562 16.398438 5.597656 16.300781 5.316406 16.417969 Z M 5.316406 16.417969 "/>
<path style=" stroke:none;fill-rule:nonzero;fill:rgb(26.27451%,90.980392%,60%);fill-opacity:1;" d="M 13.015625 20.863281 C 12.710938 20.992188 12.574219 21.597656 12.921875 21.796875 C 13.265625 21.992188 13.664062 21.640625 13.597656 21.1875 C 13.550781 20.847656 13.292969 20.75 13.015625 20.863281 Z M 13.015625 20.863281 "/>
<path style=" stroke:none;fill-rule:nonzero;fill:rgb(26.27451%,90.980392%,60%);fill-opacity:1;" d="M 8.328125 17.570312 C 6.882812 17.789062 6.5 19.457031 8.316406 20.183594 C 10.128906 20.914062 11.921875 20.097656 11.375 18.769531 C 10.964844 17.769531 9.652344 17.367188 8.328125 17.570312 Z M 8.328125 17.570312 "/>
<path style=" stroke:none;fill-rule:nonzero;fill:rgb(26.27451%,90.980392%,60%);fill-opacity:1;" d="M 4.769531 19.078125 C 4.460938 19.15625 4.3125 19.5625 4.476562 19.886719 C 4.644531 20.210938 5.175781 20.078125 5.277344 19.726562 C 5.382812 19.375 5.191406 18.96875 4.769531 19.078125 Z M 4.769531 19.078125 "/>
<path style=" stroke:none;fill-rule:nonzero;fill:rgb(26.27451%,90.980392%,60%);fill-opacity:1;" d="M 13.644531 18.148438 C 13.335938 18.226562 13.1875 18.628906 13.355469 18.953125 C 13.519531 19.273438 14.046875 19.140625 14.148438 18.792969 C 14.25 18.445312 14.066406 18.042969 13.644531 18.148438 Z M 13.644531 18.148438 "/>
<path style=" stroke:none;fill-rule:nonzero;fill:rgb(21.176471%,0%,54.901961%);fill-opacity:1;" d="M 16.382812 11.210938 C 15.621094 11.175781 14.863281 11.121094 14.097656 11.105469 C 13.800781 11.386719 13.546875 11.71875 13.257812 12.011719 C 13.675781 12.816406 14.28125 13.519531 15.023438 14.058594 C 15.964844 13.707031 16.898438 13.265625 17.683594 12.644531 C 17.3125 12.128906 16.84375 11.660156 16.382812 11.210938 Z M 16.382812 11.210938 "/>
<path style=" stroke:none;fill-rule:nonzero;fill:rgb(12.941176%,90.980392%,31.372549%);fill-opacity:1;" d="M 16.382812 11.210938 C 15.621094 11.175781 14.863281 11.121094 14.097656 11.105469 C 13.800781 11.386719 13.546875 11.71875 13.257812 12.011719 C 13.675781 12.816406 14.28125 13.519531 15.023438 14.058594 C 15.964844 13.707031 16.898438 13.265625 17.683594 12.644531 C 17.3125 12.128906 16.84375 11.660156 16.382812 11.210938 Z M 13.507812 12.042969 C 13.75 11.773438 13.972656 11.484375 14.226562 11.226562 C 14.914062 11.296875 15.601562 11.355469 16.289062 11.390625 C 16.628906 11.78125 16.972656 12.167969 17.292969 12.570312 C 16.917969 12.792969 16.566406 13.046875 16.175781 13.25 C 15.808594 13.4375 15.429688 13.609375 15.050781 13.773438 C 14.4375 13.269531 13.96875 12.671875 13.507812 12.042969 Z M 13.507812 12.042969 "/>
<path style=" stroke:none;fill-rule:nonzero;fill:rgb(12.941176%,90.980392%,31.372549%);fill-opacity:1;" d="M 15.785156 12.121094 C 15.785156 12.128906 15.785156 12.132812 15.785156 12.140625 C 15.65625 12.132812 15.527344 12.121094 15.398438 12.109375 L 15.398438 12.101562 C 15.402344 12.046875 15.367188 11.988281 15.246094 11.976562 C 15.128906 11.964844 15.0625 11.980469 15.066406 12.015625 C 15.09375 12.253906 15.789062 12.136719 15.761719 12.546875 C 15.742188 12.835938 15.511719 13.003906 15.210938 12.960938 C 15.21875 13.042969 15.222656 13.085938 15.230469 13.167969 C 15.113281 13.144531 15.058594 13.132812 14.941406 13.113281 C 14.964844 13.035156 14.976562 12.996094 14.996094 12.914062 C 14.757812 12.851562 14.570312 12.65625 14.617188 12.402344 C 14.617188 12.390625 14.621094 12.378906 14.628906 12.359375 L 14.976562 12.417969 C 14.972656 12.425781 14.972656 12.433594 14.972656 12.441406 C 14.964844 12.507812 14.992188 12.582031 15.128906 12.605469 C 15.28125 12.628906 15.320312 12.59375 15.316406 12.554688 C 15.304688 12.292969 14.660156 12.398438 14.652344 11.976562 C 14.648438 11.746094 14.9375 11.683594 15.121094 11.699219 C 15.113281 11.632812 15.109375 11.601562 15.101562 11.539062 C 15.230469 11.554688 15.296875 11.566406 15.410156 11.574219 C 15.386719 11.632812 15.375 11.664062 15.355469 11.722656 C 15.5625 11.757812 15.820312 11.875 15.785156 12.121094 Z M 15.785156 12.121094 "/>
<path style=" stroke:none;fill-rule:nonzero;fill:rgb(97.647059%,84.313725%,69.803922%);fill-opacity:1;" d="M 12.558594 18.453125 C 12.59375 17.136719 10.9375 16.855469 10.9375 16.855469 C 10.9375 16.855469 9.28125 16.367188 8.316406 16.453125 C 6.867188 16.589844 6.472656 16.628906 6.472656 16.628906 C 6.472656 16.628906 6.367188 17.421875 7.429688 17.421875 C 8.488281 17.421875 8.398438 17.390625 8.691406 17.503906 C 8.691406 17.503906 7.40625 19.101562 7.019531 20.71875 C 6.964844 20.945312 7.722656 22.765625 8.316406 22.84375 C 10.359375 23.113281 11.335938 22.960938 11.664062 22.882812 C 11.695312 22.875 11.722656 22.851562 11.738281 22.824219 C 11.753906 22.792969 11.757812 22.757812 11.742188 22.730469 L 11 20.964844 C 11.167969 20.859375 12.085938 19.878906 12.558594 18.453125 Z M 12.558594 18.453125 "/>
<path style=" stroke:none;fill-rule:nonzero;fill:rgb(29.803922%,3.137255%,71.764706%);fill-opacity:1;" d="M 12.558594 18.453125 L 18.625 16.226562 C 18.625 16.226562 20.980469 13.195312 21.296875 11.378906 C 21.574219 9.800781 20.296875 8.320312 18.628906 10.09375 C 17.886719 10.878906 16.386719 13.65625 16.386719 13.65625 L 10.9375 16.851562 C 10.9375 16.851562 12.59375 17.136719 12.558594 18.453125 Z M 12.558594 18.453125 "/>
<path style=" stroke:none;fill-rule:nonzero;fill:rgb(29.803922%,11.372549%,80.784314%);fill-opacity:1;" d="M 17.136719 14.015625 C 17.136719 14.015625 16.304688 14.167969 12.839844 15.902344 L 10.9375 16.855469 C 10.9375 16.855469 14.640625 14.492188 16.386719 13.660156 C 16.386719 13.660156 17.007812 13.667969 17.136719 14.015625 Z M 17.136719 14.015625 "/>
<path style=" stroke:none;fill-rule:nonzero;fill:rgb(85.882353%,63.921569%,44.313725%);fill-opacity:1;" d="M 8.695312 17.503906 L 9.074219 17.421875 C 9.074219 17.421875 8.601562 17.324219 8.371094 17.339844 C 8.140625 17.355469 7.839844 17.417969 7.667969 17.421875 C 7.667969 17.421875 8.488281 17.429688 8.695312 17.503906 Z M 8.695312 17.503906 "/>
<path style=" stroke:none;fill-rule:nonzero;fill:rgb(85.882353%,63.921569%,44.313725%);fill-opacity:1;" d="M 11.0625 22.96875 C 11.0625 22.96875 10.535156 22.152344 10.425781 21.898438 C 10.316406 21.644531 10.121094 21.054688 10.164062 20.851562 C 10.203125 20.648438 10.695312 19.730469 10.636719 19.71875 C 10.597656 19.714844 10.554688 19.714844 10.515625 19.71875 C 10.515625 19.71875 10.035156 20.570312 9.980469 20.851562 C 9.925781 21.128906 10.175781 21.722656 10.328125 22.082031 C 10.480469 22.445312 10.96875 22.976562 10.96875 22.976562 Z M 11.0625 22.96875 "/>
<path style=" stroke:none;fill-rule:nonzero;fill:rgb(85.882353%,63.921569%,44.313725%);fill-opacity:1;" d="M 9.976562 22.996094 C 9.976562 22.996094 9.628906 22.644531 9.5 22.289062 C 9.335938 21.8125 9.097656 21.328125 9.121094 20.863281 C 9.140625 20.402344 9.644531 19.703125 9.65625 19.6875 C 9.667969 19.667969 9.542969 19.652344 9.542969 19.652344 C 9.542969 19.652344 8.960938 20.402344 8.960938 20.863281 C 8.960938 21.234375 9.085938 21.667969 9.351562 22.300781 C 9.597656 22.882812 9.839844 22.996094 9.839844 22.996094 Z M 9.976562 22.996094 "/>
<path style=" stroke:none;fill-rule:nonzero;fill:rgb(85.882353%,63.921569%,44.313725%);fill-opacity:1;" d="M 8.589844 19.558594 C 8.539062 19.527344 8.476562 19.527344 8.425781 19.558594 C 8.359375 19.613281 7.898438 20.511719 7.898438 20.855469 C 7.898438 21.195312 8.277344 22.082031 8.332031 22.226562 C 8.390625 22.371094 8.632812 22.800781 8.828125 22.90625 L 8.945312 22.917969 C 8.945312 22.917969 8.617188 22.5625 8.476562 22.242188 C 8.339844 21.917969 8.035156 21.125 8.039062 20.855469 C 8.046875 20.585938 8.589844 19.558594 8.589844 19.558594 Z M 8.589844 19.558594 "/>
<path style=" stroke:none;fill-rule:nonzero;fill:rgb(12.941176%,90.980392%,31.372549%);fill-opacity:1;" d="M 12.222656 17.277344 C 12.523438 17.578125 12.722656 17.953125 12.804688 18.363281 L 12.558594 18.453125 C 12.558594 18.453125 12.527344 17.863281 12.085938 17.464844 C 11.507812 16.941406 10.9375 16.855469 10.9375 16.855469 L 11.140625 16.722656 C 11.140625 16.722656 11.6875 16.757812 12.222656 17.277344 Z M 12.222656 17.277344 "/>
<path style=" stroke:none;fill-rule:nonzero;fill:rgb(97.647059%,80.784314%,69.803922%);fill-opacity:1;" d="M 12.128906 17.828125 C 12.15625 18.117188 12.117188 18.40625 12.011719 18.675781 C 11.84375 19.082031 10.878906 20.734375 10.878906 20.941406 C 10.878906 21.148438 11.664062 22.882812 11.664062 22.882812 C 11.664062 22.882812 11.78125 22.882812 11.742188 22.730469 C 11.707031 22.574219 11.0625 20.964844 11.0625 20.964844 C 11.0625 20.964844 11.808594 20.195312 12.113281 19.515625 C 12.417969 18.835938 12.558594 18.453125 12.558594 18.453125 C 12.558594 18.453125 12.558594 17.941406 12.085938 17.464844 C 12.089844 17.464844 12.121094 17.699219 12.128906 17.828125 Z M 12.128906 17.828125 "/>
<path style=" stroke:none;fill-rule:nonzero;fill:rgb(97.647059%,84.313725%,69.803922%);fill-opacity:1;" d="M 4.976562 7 C 4.914062 5.664062 3.273438 5.308594 3.273438 5.308594 C 2.554688 5.734375 2.070312 6.058594 2.070312 6.058594 C 2.070312 6.058594 0.164062 7.832031 0.0078125 8.488281 C -0.078125 8.859375 0.570312 9.714844 0.777344 9.875 C 0.777344 9.875 1.273438 10.226562 1.488281 10.351562 C 2.230469 10.792969 3.1875 10.625 3.1875 10.625 C 3.1875 10.625 3.449219 10.613281 4.003906 9.664062 C 4.003906 9.664062 4.542969 9.683594 4.882812 9.289062 C 5.042969 9.101562 5.136719 8.796875 5.121094 8.4375 C 5.09375 7.835938 5.003906 7.191406 4.980469 7.035156 C 4.976562 7.023438 4.976562 7.011719 4.976562 7 Z M 4.976562 7 "/>
<path style=" stroke:none;fill-rule:nonzero;fill:rgb(97.647059%,80.784314%,69.803922%);fill-opacity:1;" d="M 4.472656 7.878906 C 4.519531 7.972656 4.550781 8.074219 4.566406 8.179688 C 4.609375 8.339844 4.605469 8.511719 4.554688 8.667969 C 4.554688 8.667969 4.007812 9.664062 3.984375 9.703125 C 3.960938 9.746094 3.605469 10.355469 3.371094 10.515625 C 3.371094 10.515625 4.0625 9.304688 4.265625 8.851562 C 4.390625 8.542969 4.460938 8.214844 4.472656 7.878906 Z M 4.472656 7.878906 "/>
<path style=" stroke:none;fill-rule:nonzero;fill:rgb(97.647059%,80.784314%,69.803922%);fill-opacity:1;" d="M 4.683594 6.191406 C 4.683594 6.191406 4.933594 6.9375 4.960938 7.304688 C 4.992188 7.671875 5.097656 8.300781 5.109375 8.730469 C 5.109375 8.730469 5.175781 8.40625 5.054688 7.496094 C 4.933594 6.582031 4.8125 6.363281 4.683594 6.191406 Z M 4.683594 6.191406 "/>
<path style=" stroke:none;fill-rule:nonzero;fill:rgb(26.666667%,0%,60%);fill-opacity:1;" d="M 4.976562 7 C 4.976562 7.011719 4.980469 7.023438 4.980469 7.035156 Z M 4.976562 7 "/>
<path style=" stroke:none;fill-rule:nonzero;fill:rgb(26.666667%,0%,60%);fill-opacity:1;" d="M 4.976562 7 C 4.976562 7 7.191406 5.289062 8.839844 5.148438 C 9.117188 5.128906 11.195312 6.253906 13.355469 7.019531 C 16.644531 8.183594 17.074219 5.839844 15.117188 5.085938 C 12.464844 4.058594 10.179688 3.40625 8.578125 3.480469 C 7.265625 3.542969 4.601562 4.519531 3.273438 5.308594 C 3.273438 5.308594 4.914062 5.664062 4.976562 7 Z M 4.976562 7 "/>
<path style=" stroke:none;fill-rule:nonzero;fill:rgb(29.803922%,11.372549%,80.784314%);fill-opacity:1;" d="M 3.53125 5.382812 C 3.53125 5.382812 6.210938 4.097656 8.761719 3.476562 C 8.761719 3.476562 6.617188 3.476562 3.273438 5.308594 Z M 3.53125 5.382812 "/>
<path style=" stroke:none;fill-rule:nonzero;fill:rgb(85.882353%,63.921569%,44.313725%);fill-opacity:1;" d="M 2.859375 8.402344 C 2.859375 8.402344 2.351562 9.191406 2.359375 9.328125 C 2.371094 9.464844 2.785156 10.519531 3.03125 10.636719 L 3.1875 10.625 C 3.1875 10.625 2.71875 10.320312 2.496094 9.355469 Z M 2.859375 8.402344 "/>
<path style=" stroke:none;fill-rule:nonzero;fill:rgb(85.882353%,63.921569%,44.313725%);fill-opacity:1;" d="M 1.996094 10.558594 C 1.996094 10.558594 1.464844 9.761719 1.351562 9.386719 C 1.351562 9.386719 1.5625 8.566406 1.816406 8.179688 C 1.816406 8.179688 1.230469 9.101562 1.210938 9.328125 C 1.191406 9.550781 1.902344 10.53125 1.902344 10.53125 Z M 1.996094 10.558594 "/>
<path style=" stroke:none;fill-rule:nonzero;fill:rgb(85.882353%,63.921569%,44.313725%);fill-opacity:1;" d="M 0.871094 9.945312 C 0.871094 9.945312 0.453125 8.921875 0.445312 8.835938 C 0.441406 8.746094 1.097656 7.90625 1.097656 7.90625 C 1.097656 7.90625 0.355469 8.726562 0.339844 8.84375 C 0.320312 8.960938 0.777344 9.875 0.777344 9.875 Z M 0.871094 9.945312 "/>
<path style=" stroke:none;fill-rule:nonzero;fill:rgb(85.882353%,63.921569%,44.313725%);fill-opacity:1;" d="M 4.003906 9.664062 C 4.003906 9.664062 4.511719 8.804688 4.554688 8.667969 C 4.597656 8.554688 4.597656 8.425781 4.5625 8.308594 C 4.5625 8.308594 4.765625 8.355469 4.664062 8.703125 C 4.566406 9.058594 4.003906 9.664062 4.003906 9.664062 Z M 4.003906 9.664062 "/>
<path style=" stroke:none;fill-rule:nonzero;fill:rgb(12.941176%,90.980392%,31.372549%);fill-opacity:1;" d="M 3.273438 5.308594 C 3.273438 5.308594 4.015625 5.546875 4.386719 5.859375 C 4.757812 6.175781 4.925781 6.605469 4.980469 7.039062 L 5.132812 6.890625 C 5.132812 6.890625 5.175781 6.28125 4.628906 5.75 C 4.078125 5.21875 3.496094 5.179688 3.496094 5.179688 Z M 3.273438 5.308594 "/>
<path style=" stroke:none;fill-rule:nonzero;fill:rgb(97.647059%,84.313725%,69.803922%);fill-opacity:1;" d="M 9.863281 4.730469 C 9.882812 5.273438 10.183594 6.871094 10.183594 6.871094 C 10.050781 7.710938 10.175781 8.566406 10.550781 9.332031 C 11.539062 11.3125 13.695312 11.511719 13.695312 11.511719 C 13.695312 11.511719 16.636719 11.253906 18.179688 8.683594 C 18.296875 8.488281 18.304688 7.796875 18.304688 7.796875 C 18.304688 7.796875 19.394531 7.804688 19.738281 7.046875 C 20.085938 6.292969 20.070312 5.078125 19.464844 5.203125 C 18.855469 5.332031 18.453125 5.992188 18.453125 5.992188 C 18.453125 5.992188 18.867188 4.839844 18.0625 3.375 C 17.257812 1.90625 15.675781 1.117188 13.621094 1.367188 C 11.566406 1.613281 9.804688 3.378906 9.863281 4.730469 Z M 9.863281 4.730469 "/>
<path style=" stroke:none;fill-rule:nonzero;fill:rgb(97.647059%,80.784314%,69.803922%);fill-opacity:1;" d="M 18.074219 7.515625 C 18.074219 7.515625 18.035156 8.273438 17.84375 8.570312 C 17.339844 9.414062 16.621094 10.121094 15.757812 10.625 C 14.46875 11.359375 13.695312 11.511719 13.695312 11.511719 C 13.695312 11.511719 14.648438 11.503906 15.917969 10.796875 C 17.1875 10.09375 17.875 9.371094 18.199219 8.714844 C 18.28125 8.417969 18.316406 8.105469 18.304688 7.796875 C 18.289062 7.273438 18.289062 7.113281 18.222656 6.910156 C 18.160156 6.707031 18.078125 6.960938 18.078125 6.960938 Z M 18.074219 7.515625 "/>
<path style=" stroke:none;fill-rule:nonzero;fill:rgb(18.823529%,11.372549%,7.058824%);fill-opacity:1;" d="M 15.910156 3.679688 C 15.910156 3.679688 14.171875 4.988281 13.207031 5.210938 L 13.6875 4.390625 C 13.6875 4.390625 12.175781 5.679688 10.996094 5.824219 L 11.34375 5.128906 C 11.34375 5.128906 10.121094 6.226562 9.734375 6.238281 C 9.734375 6.238281 9.742188 5.445312 9.882812 4.992188 C 9.882812 4.992188 8.707031 5.886719 8.363281 6.617188 C 8.363281 6.617188 8.722656 4.609375 9.960938 3.511719 L 9.070312 3.832031 C 9.070312 3.832031 9.875 1.449219 13.304688 1.117188 C 13.304688 1.117188 12.222656 0.871094 11.3125 0.347656 C 11.3125 0.347656 12.960938 0.0273438 14.199219 0.128906 C 15.128906 0.203125 15.992188 0.792969 15.992188 0.792969 L 15.621094 0.0625 C 15.621094 0.0625 16.921875 0.746094 17.019531 1.226562 L 17.40625 0.566406 C 17.40625 0.566406 17.546875 1.125 17.359375 1.402344 C 17.359375 1.402344 18.089844 1.96875 18.265625 2.226562 C 18.441406 2.484375 18.957031 2.675781 18.957031 2.675781 C 18.851562 2.765625 18.707031 2.808594 18.566406 2.785156 C 18.566406 2.785156 18.785156 3.605469 18.800781 4.082031 C 18.804688 4.417969 18.777344 4.753906 18.722656 5.085938 L 18.777344 5.628906 C 18.777344 5.628906 18.367188 6.132812 18.265625 6.390625 C 18.265625 6.390625 17.390625 5.980469 17.011719 4.566406 C 17.011719 4.566406 16.070312 4.078125 15.910156 3.679688 Z M 15.910156 3.679688 "/>
<path style=" stroke:none;fill-rule:nonzero;fill:rgb(85.882353%,63.921569%,44.313725%);fill-opacity:1;" d="M 12.863281 7.691406 C 12.804688 8.089844 12.472656 9.25 12.472656 9.25 C 12.472656 9.25 12.734375 9.714844 13.09375 9.703125 L 13.152344 9.617188 C 13.152344 9.617188 12.632812 9.414062 12.574219 9.257812 C 12.574219 9.257812 12.914062 8.105469 12.960938 7.519531 C 12.984375 7.171875 12.980469 6.824219 12.945312 6.476562 C 12.945312 6.882812 12.917969 7.289062 12.863281 7.691406 Z M 12.863281 7.691406 "/>
<path style=" stroke:none;fill-rule:nonzero;fill:rgb(26.666667%,0%,60%);fill-opacity:1;" d="M 12.664062 7.273438 C 12.664062 7.273438 11.84375 6.527344 11.1875 6.570312 C 10.535156 6.613281 10.183594 6.871094 10.183594 6.871094 C 10.105469 7.082031 10.089844 7.308594 10.136719 7.527344 C 10.136719 7.527344 10.636719 8.292969 11.613281 8.3125 C 12.59375 8.332031 12.503906 7.855469 13.0625 7.835938 C 13.621094 7.820312 14.054688 8.402344 15.367188 8.230469 C 16.679688 8.058594 17.925781 7.101562 18.222656 6.902344 C 18.191406 6.726562 18.203125 6.546875 18.265625 6.375 C 18.265625 6.375 18.242188 6.5625 17.3125 6.554688 C 16.382812 6.542969 15.996094 6.160156 15.039062 6.277344 C 14.078125 6.398438 13.316406 7.109375 13.09375 7.253906 C 12.964844 7.335938 12.800781 7.34375 12.664062 7.273438 Z M 12.664062 7.273438 "/>
<path style=" stroke:none;fill-rule:nonzero;fill:rgb(12.941176%,90.980392%,31.372549%);fill-opacity:1;" d="M 11.894531 7.558594 C 11.894531 7.558594 11.625 7.238281 11.246094 7.289062 C 10.847656 7.34375 10.777344 7.492188 10.777344 7.492188 C 10.789062 7.519531 11.15625 7.847656 11.503906 7.816406 C 11.855469 7.789062 11.894531 7.558594 11.894531 7.558594 Z M 11.894531 7.558594 "/>
<path style=" stroke:none;fill-rule:nonzero;fill:rgb(12.941176%,90.980392%,31.372549%);fill-opacity:1;" d="M 14.4375 7.40625 C 14.4375 7.40625 14.785156 6.945312 15.238281 7.011719 C 15.890625 7.105469 15.925781 7.339844 15.925781 7.339844 C 15.925781 7.339844 14.945312 7.949219 14.4375 7.40625 Z M 14.4375 7.40625 "/>
<path style=" stroke:none;fill-rule:nonzero;fill:rgb(97.647059%,80.784314%,69.803922%);fill-opacity:1;" d="M 19.152344 6.046875 L 18.671875 6.644531 C 18.671875 6.644531 19.007812 6.492188 19.171875 6.574219 L 19.246094 6.679688 C 19.246094 6.679688 19.265625 7.066406 19.113281 7.167969 C 18.957031 7.273438 19 7.277344 19 7.277344 C 19.078125 7.34375 19.46875 7.242188 19.578125 6.824219 C 19.691406 6.402344 19.621094 5.90625 19.621094 5.90625 L 19.453125 5.980469 Z M 19.152344 6.046875 "/>
<path style=" stroke:none;fill-rule:nonzero;fill:rgb(85.882353%,63.921569%,44.313725%);fill-opacity:1;" d="M 18.671875 6.644531 C 18.671875 6.644531 19.042969 6 19.324219 5.785156 C 19.605469 5.566406 19.714844 5.851562 19.722656 6.097656 C 19.734375 6.347656 19.582031 6.824219 19.582031 6.824219 C 19.582031 6.824219 19.738281 5.917969 19.453125 5.980469 C 19.167969 6.046875 18.671875 6.644531 18.671875 6.644531 Z M 18.671875 6.644531 "/>
<path style=" stroke:none;fill-rule:nonzero;fill:rgb(85.882353%,63.921569%,44.313725%);fill-opacity:1;" d="M 18.914062 6.566406 C 18.914062 6.566406 19.25 6.503906 19.214844 6.792969 C 19.179688 7.070312 19.078125 7.132812 18.933594 7.261719 C 18.835938 7.34375 19.023438 7.292969 19.109375 7.242188 C 19.195312 7.195312 19.371094 6.863281 19.3125 6.671875 C 19.257812 6.476562 19.035156 6.523438 18.914062 6.566406 Z M 18.914062 6.566406 "/>
<path style=" stroke:none;fill-rule:nonzero;fill:rgb(18.823529%,11.372549%,7.058824%);fill-opacity:1;" d="M 13.609375 5.898438 C 13.609375 5.898438 13.542969 6.210938 13.589844 6.257812 C 13.640625 6.308594 14.628906 5.96875 14.953125 5.90625 C 15.277344 5.847656 16.304688 6.003906 16.304688 6.003906 C 16.304688 6.003906 15.269531 5.523438 14.964844 5.558594 C 14.664062 5.59375 13.609375 5.898438 13.609375 5.898438 Z M 13.609375 5.898438 "/>
<path style=" stroke:none;fill-rule:nonzero;fill:rgb(18.823529%,11.372549%,7.058824%);fill-opacity:1;" d="M 12.253906 6.414062 C 11.945312 6.382812 11.460938 6.285156 11.152344 6.308594 C 10.847656 6.332031 10.257812 6.511719 10.257812 6.511719 C 10.417969 6.269531 10.667969 6.101562 10.957031 6.035156 C 11.148438 5.988281 12.140625 5.996094 12.28125 6.046875 C 12.277344 6.046875 12.347656 6.421875 12.253906 6.414062 Z M 12.253906 6.414062 "/>
<path style=" stroke:none;fill-rule:nonzero;fill:rgb(100%,100%,100%);fill-opacity:1;" d="M 12.433594 10.347656 L 13.085938 10.820312 C 13.085938 10.820312 14.445312 11.003906 15.597656 9.554688 C 15.597656 9.554688 14.578125 10.046875 13.757812 10.226562 C 13.324219 10.320312 12.878906 10.359375 12.433594 10.347656 Z M 12.433594 10.347656 "/>
<path style=" stroke:none;fill-rule:nonzero;fill:rgb(85.882353%,63.921569%,44.313725%);fill-opacity:1;" d="M 15.441406 9.464844 C 15.441406 9.464844 15.695312 9.328125 15.746094 9.535156 C 15.746094 9.535156 15.800781 9.355469 15.644531 9.320312 C 15.488281 9.28125 15.441406 9.464844 15.441406 9.464844 Z M 15.441406 9.464844 "/>
<path style=" stroke:none;fill-rule:nonzero;fill:rgb(33.72549%,19.215686%,12.941176%);fill-opacity:1;" d="M 8.363281 6.617188 C 8.363281 6.617188 9.65625 3.925781 11.363281 2.914062 C 11.363281 2.914062 9.570312 3.265625 8.855469 4.71875 C 8.164062 6.121094 8.363281 6.617188 8.363281 6.617188 Z M 8.363281 6.617188 "/>
<path style=" stroke:none;fill-rule:nonzero;fill:rgb(33.72549%,19.215686%,12.941176%);fill-opacity:1;" d="M 9.734375 6.238281 C 9.976562 5.308594 10.488281 4.460938 11.207031 3.800781 C 11.207031 3.800781 10.242188 4.265625 9.882812 4.992188 C 9.601562 5.5625 9.734375 6.238281 9.734375 6.238281 Z M 9.734375 6.238281 "/>
<path style=" stroke:none;fill-rule:nonzero;fill:rgb(33.72549%,19.215686%,12.941176%);fill-opacity:1;" d="M 14.203125 1.15625 C 14.203125 1.15625 12.765625 0.867188 10.949219 1.746094 C 10.058594 2.171875 9.386719 2.925781 9.074219 3.835938 C 9.074219 3.835938 9.914062 2.714844 11.15625 2.019531 C 12.480469 1.277344 14.203125 1.15625 14.203125 1.15625 Z M 14.203125 1.15625 "/>
<path style=" stroke:none;fill-rule:nonzero;fill:rgb(33.72549%,19.215686%,12.941176%);fill-opacity:1;" d="M 11.882812 3.414062 C 11.882812 3.414062 10.613281 4.703125 10.238281 5.605469 C 10.238281 5.605469 10.210938 4.59375 10.710938 4.15625 C 11.207031 3.714844 11.882812 3.414062 11.882812 3.414062 Z M 11.882812 3.414062 "/>
<path style=" stroke:none;fill-rule:nonzero;fill:rgb(33.72549%,19.215686%,12.941176%);fill-opacity:1;" d="M 13.347656 1.277344 C 12.675781 1.464844 12.074219 1.835938 11.613281 2.34375 C 11.613281 2.34375 13.886719 1.265625 15.003906 1.171875 C 14.449219 1.078125 13.882812 1.113281 13.347656 1.277344 Z M 13.347656 1.277344 "/>
<path style=" stroke:none;fill-rule:nonzero;fill:rgb(33.72549%,19.215686%,12.941176%);fill-opacity:1;" d="M 16.144531 0.917969 C 16.144531 0.917969 15.738281 0.210938 14.050781 0.164062 C 13.132812 0.136719 12.214844 0.195312 11.3125 0.34375 C 11.3125 0.34375 12.925781 0.402344 13.882812 0.453125 C 14.84375 0.503906 16.144531 0.917969 16.144531 0.917969 Z M 16.144531 0.917969 "/>
<path style=" stroke:none;fill-rule:nonzero;fill:rgb(33.72549%,19.215686%,12.941176%);fill-opacity:1;" d="M 17.023438 1.226562 C 17.023438 1.226562 17.082031 1.074219 16.613281 0.632812 C 16.335938 0.371094 15.996094 0.175781 15.621094 0.0625 C 15.621094 0.0625 16.367188 0.515625 16.625 0.773438 C 16.773438 0.914062 16.90625 1.066406 17.023438 1.226562 Z M 17.023438 1.226562 "/>
<path style=" stroke:none;fill-rule:nonzero;fill:rgb(33.72549%,19.215686%,12.941176%);fill-opacity:1;" d="M 14.324219 1.738281 C 14.785156 1.695312 15.25 1.6875 15.714844 1.707031 C 15.265625 1.890625 14.855469 2.148438 14.503906 2.472656 C 14.503906 2.472656 16.632812 1.632812 17.289062 1.609375 C 17.289062 1.609375 16.238281 0.878906 14.324219 1.738281 Z M 14.324219 1.738281 "/>
<path style=" stroke:none;fill-rule:nonzero;fill:rgb(33.72549%,19.215686%,12.941176%);fill-opacity:1;" d="M 14.144531 2.210938 C 14.144531 2.210938 12.878906 2.507812 12.191406 3.371094 C 11.5 4.230469 11.421875 4.863281 10.996094 5.824219 C 10.996094 5.824219 11.980469 4.808594 12.277344 4.058594 C 12.691406 3.003906 14.144531 2.210938 14.144531 2.210938 Z M 14.144531 2.210938 "/>
<path style=" stroke:none;fill-rule:nonzero;fill:rgb(43.921569%,25.882353%,16.862745%);fill-opacity:1;" d="M 17.023438 1.226562 C 17.023438 1.226562 17.34375 1.050781 17.410156 0.566406 Z M 17.023438 1.226562 "/>
<path style=" stroke:none;fill-rule:nonzero;fill:rgb(33.72549%,19.215686%,12.941176%);fill-opacity:1;" d="M 18.960938 2.675781 C 18.960938 2.675781 18.472656 2.375 17.640625 1.550781 C 17.464844 1.378906 17.363281 1.402344 17.363281 1.402344 C 17.550781 1.507812 18.15625 2.242188 18.578125 2.5625 C 18.691406 2.636719 18.824219 2.675781 18.960938 2.675781 Z M 18.960938 2.675781 "/>
<path style=" stroke:none;fill-rule:nonzero;fill:rgb(33.72549%,19.215686%,12.941176%);fill-opacity:1;" d="M 16.515625 2.269531 C 16.515625 2.269531 15.195312 2.453125 14.367188 3.359375 C 13.773438 4.011719 13.617188 4.5 13.207031 5.210938 C 13.207031 5.210938 14.707031 3.527344 15.289062 3.089844 C 15.683594 2.796875 16.09375 2.523438 16.515625 2.269531 Z M 16.515625 2.269531 "/>
<path style=" stroke:none;fill-rule:nonzero;fill:rgb(97.647059%,80.784314%,69.803922%);fill-opacity:1;" d="M 12.574219 9.257812 C 12.574219 9.257812 12.808594 9.65625 13.09375 9.703125 C 13.375 9.75 13.421875 9.484375 13.390625 9.453125 C 13.359375 9.425781 13.109375 9.445312 12.945312 9.441406 C 12.777344 9.4375 12.574219 9.257812 12.574219 9.257812 Z M 12.574219 9.257812 "/>
<path style=" stroke:none;fill-rule:nonzero;fill:rgb(29.803922%,3.137255%,71.764706%);fill-opacity:1;" d="M 12.769531 7.375 C 12.769531 7.375 12.804688 7.703125 12.703125 7.855469 L 12.941406 7.753906 C 12.941406 7.753906 12.976562 7.433594 12.96875 7.394531 C 12.960938 7.351562 12.769531 7.375 12.769531 7.375 Z M 12.769531 7.375 "/>
<path style=" stroke:none;fill-rule:nonzero;fill:rgb(29.803922%,3.137255%,71.764706%);fill-opacity:1;" d="M 16.171875 7.367188 C 16.003906 7.46875 15.820312 7.550781 15.628906 7.605469 C 15.292969 7.707031 14.832031 7.667969 14.636719 7.554688 C 14.636719 7.554688 15.191406 7.703125 15.921875 7.335938 Z M 16.171875 7.367188 "/>
<path style=" stroke:none;fill-rule:nonzero;fill:rgb(29.803922%,3.137255%,71.764706%);fill-opacity:1;" d="M 11.894531 7.558594 C 11.855469 7.65625 11.777344 7.734375 11.679688 7.777344 C 11.527344 7.820312 11.363281 7.820312 11.214844 7.769531 C 11.214844 7.769531 11.269531 7.917969 11.617188 7.890625 C 11.929688 7.863281 12.050781 7.535156 11.894531 7.558594 Z M 11.894531 7.558594 "/>
<path style=" stroke:none;fill-rule:nonzero;fill:rgb(43.921569%,25.882353%,16.862745%);fill-opacity:1;" d="M 9.332031 3.242188 C 9.332031 3.242188 10.164062 2.199219 11.023438 1.789062 C 11.882812 1.375 12.417969 1.238281 12.417969 1.238281 C 12.417969 1.238281 10.898438 1.535156 10.1875 2.195312 C 9.472656 2.855469 9.332031 3.242188 9.332031 3.242188 Z M 9.332031 3.242188 "/>
<path style=" stroke:none;fill-rule:nonzero;fill:rgb(43.921569%,25.882353%,16.862745%);fill-opacity:1;" d="M 8.707031 5.394531 C 8.707031 5.394531 9.332031 4.140625 9.949219 3.683594 C 10.277344 3.433594 10.625 3.210938 10.992188 3.015625 C 10.992188 3.015625 9.660156 3.425781 9.046875 4.390625 C 8.429688 5.359375 8.347656 6.195312 8.347656 6.195312 C 8.453125 5.921875 8.570312 5.65625 8.707031 5.394531 Z M 8.707031 5.394531 "/>
<path style=" stroke:none;fill-rule:nonzero;fill:rgb(43.921569%,25.882353%,16.862745%);fill-opacity:1;" d="M 10.824219 4.027344 C 10.824219 4.027344 10.289062 4.457031 10.027344 4.96875 C 9.871094 5.277344 9.761719 5.601562 9.703125 5.941406 C 9.703125 5.941406 9.644531 5.242188 10.019531 4.746094 C 10.234375 4.457031 10.507812 4.210938 10.824219 4.027344 Z M 10.824219 4.027344 "/>
<path style=" stroke:none;fill-rule:nonzero;fill:rgb(43.921569%,25.882353%,16.862745%);fill-opacity:1;" d="M 13.28125 2.535156 C 13.28125 2.535156 12.285156 2.980469 11.835938 3.714844 C 11.386719 4.449219 11.277344 5.140625 11.160156 5.421875 C 11.160156 5.421875 11.613281 4.359375 11.796875 4.007812 C 12.171875 3.300781 12.722656 2.917969 13.28125 2.535156 Z M 13.28125 2.535156 "/>
<path style=" stroke:none;fill-rule:nonzero;fill:rgb(43.921569%,25.882353%,16.862745%);fill-opacity:1;" d="M 12.136719 1.867188 C 12.136719 1.867188 13.402344 1.261719 14.523438 1.125 C 14.0625 1.109375 13.601562 1.175781 13.160156 1.3125 C 12.789062 1.441406 12.445312 1.628906 12.136719 1.867188 Z M 12.136719 1.867188 "/>
<path style=" stroke:none;fill-rule:nonzero;fill:rgb(43.921569%,25.882353%,16.862745%);fill-opacity:1;" d="M 14.503906 2.472656 C 14.503906 2.472656 14.890625 1.792969 16.199219 1.601562 C 16.199219 1.601562 15.242188 1.898438 14.503906 2.472656 Z M 14.503906 2.472656 "/>
<path style=" stroke:none;fill-rule:nonzero;fill:rgb(43.921569%,25.882353%,16.862745%);fill-opacity:1;" d="M 13.496094 4.679688 C 13.496094 4.679688 14.050781 3.65625 14.882812 3.074219 C 15.714844 2.488281 16.144531 2.351562 16.144531 2.351562 C 16.144531 2.351562 15.101562 2.578125 14.433594 3.234375 C 14.019531 3.648438 13.703125 4.140625 13.496094 4.679688 Z M 13.496094 4.679688 "/>
<path style=" stroke:none;fill-rule:nonzero;fill:rgb(43.921569%,25.882353%,16.862745%);fill-opacity:1;" d="M 15.726562 0.558594 C 15.726562 0.558594 14.863281 0.21875 13.574219 0.167969 C 12.816406 0.144531 12.058594 0.203125 11.3125 0.347656 C 11.3125 0.347656 11.980469 0.144531 13.1875 0.0234375 C 14.570312 -0.117188 15.726562 0.558594 15.726562 0.558594 Z M 15.726562 0.558594 "/>
<path style=" stroke:none;fill-rule:nonzero;fill:rgb(33.72549%,19.215686%,12.941176%);fill-opacity:1;" d="M 17.007812 3.691406 C 16.972656 3.980469 16.972656 4.277344 17.007812 4.566406 C 17.074219 4.992188 17.375 5.660156 17.761719 5.992188 C 17.761719 5.992188 17.324219 5.234375 17.207031 4.574219 C 17.207031 4.574219 17.359375 4.886719 17.617188 5.039062 C 17.621094 5.039062 17.074219 4.339844 17.007812 3.691406 Z M 17.007812 3.691406 "/>
<path style=" stroke:none;fill-rule:nonzero;fill:rgb(33.72549%,19.215686%,12.941176%);fill-opacity:1;" d="M 17.449219 1.757812 C 17.449219 1.757812 17.980469 2.480469 18.148438 2.90625 C 18.148438 2.90625 18.09375 2.550781 17.929688 2.304688 C 17.664062 1.917969 17.449219 1.757812 17.449219 1.757812 Z M 17.449219 1.757812 "/>
</g>
</svg>
